<?xml version="1.0" encoding="UTF-8"?>
<svg width="234px" height="49px" viewBox="0 0 234 49" version="1.1" xmlns="http://www.w3.org/2000/svg" xmlns:xlink="http://www.w3.org/1999/xlink">
    <!-- Generator: sketchtool 50.2 (55047) - http://www.bohemiancoding.com/sketch -->
    <title>A6B0DED7-2C76-411E-832A-8C1E8CEF7960</title>
    <desc>Created with sketchtool.</desc>
    <defs>
        <polygon id="path-1" points="0 0.741402379 24.9665508 0.741402379 24.9665508 26.6177 0 26.6177"></polygon>
    </defs>
    <g id="Symbols" stroke="none" stroke-width="1" fill="none" fill-rule="evenodd">
        <g id="Logo_Coomeva">
            <g id="Group">
                <g id="Group-3" transform="translate(0.000000, 0.258700)">
                    <mask id="mask-2" fill="white">
                        <use xlink:href="#path-1"></use>
                    </mask>
                    <g id="Clip-2"></g>
                    <path d="M24.9548,14.5257 C24.9308,14.4647 22.4938,8.3627 16.7268,0.8117 C16.6968,0.7737 16.6518,0.7477 16.6038,0.7427 C16.5548,0.7367 16.5058,0.7517 16.4698,0.7837 C16.3618,0.8717 5.5858,9.9077 0.0088,26.3817 C-0.0212,26.4737 0.0248,26.5717 0.1128,26.6067 C0.1348,26.6147 0.1578,26.6177 0.1808,26.6177 C0.2478,26.6177 0.3128,26.5797 0.3438,26.5157 C0.3958,26.4007 5.6438,15.1247 17.4758,4.8237 C18.0768,5.5457 20.9458,9.0647 24.6358,14.6907 C24.6868,14.7657 24.7878,14.7937 24.8698,14.7507 C24.9518,14.7077 24.9868,14.6107 24.9548,14.5257" id="Fill-1" fill="#FEFEFE" mask="url(#mask-2)"></path>
                </g>
                <path d="M25.7068,22.0764 C25.6828,22.0134 23.2448,15.9094 17.4788,8.3614 C17.4488,8.3224 17.4038,8.2994 17.3558,8.2914 C17.3098,8.2894 17.2588,8.3034 17.2208,8.3314 C17.1148,8.4224 6.3358,17.4554 0.7598,33.9304 C0.7288,34.0234 0.7768,34.1204 0.8648,34.1574 C0.8868,34.1654 0.9068,34.1684 0.9308,34.1684 C0.9998,34.1684 1.0648,34.1294 1.0948,34.0644 C1.1478,33.9514 6.3968,22.6754 18.2268,12.3694 C18.8298,13.0954 21.6988,16.6124 25.3908,22.2394 C25.4388,22.3174 25.5408,22.3434 25.6228,22.3004 C25.7048,22.2594 25.7418,22.1624 25.7068,22.0764" id="Fill-4" fill="#FEFEFE"></path>
                <path d="M90.1677,34.7829 C90.1677,34.8739 90.1637,34.9639 90.1557,35.0529 C90.1457,35.1439 90.1267,35.2289 90.1077,35.3119 C90.0367,35.5239 89.9227,35.7149 89.7677,35.8869 C89.6127,36.0549 89.4217,36.1909 89.2067,36.2919 C88.9897,36.3949 88.7527,36.4459 88.5007,36.4479 C88.2637,36.4479 88.0587,36.4039 87.8797,36.3199 C87.6927,36.2339 87.5487,36.1029 87.4427,35.9229 C87.3367,35.7509 87.2847,35.5329 87.2827,35.2699 C87.2877,34.8789 87.4177,34.5669 87.6667,34.3379 C87.9217,34.1129 88.2597,33.9449 88.6947,33.8489 C89.1287,33.7469 89.6177,33.7009 90.1677,33.7009 L90.1677,34.7829 Z M93.1537,32.5259 C93.1587,31.9309 93.0897,31.3749 92.9437,30.8569 C92.7987,30.3339 92.5557,29.8819 92.2237,29.4849 C91.8917,29.0909 91.4437,28.7829 90.8837,28.5549 C90.3237,28.3329 89.6317,28.2179 88.8057,28.2129 C88.1997,28.2179 87.6477,28.2649 87.1487,28.3619 C86.6567,28.4579 86.2217,28.5719 85.8517,28.7049 C85.4777,28.8409 85.1727,28.9749 84.9407,29.1099 L85.5117,31.1019 C85.7287,30.9639 85.9897,30.8369 86.2847,30.7249 C86.5827,30.6119 86.8997,30.5219 87.2347,30.4559 C87.5747,30.3869 87.9107,30.3469 88.2577,30.3469 C88.6377,30.3529 88.9457,30.3939 89.1827,30.4729 C89.4217,30.5559 89.6057,30.6659 89.7337,30.7949 C89.8607,30.9249 89.9477,31.0669 89.9997,31.2179 C90.0457,31.3659 90.0687,31.5109 90.0647,31.6489 L90.0647,31.7699 C89.1847,31.7699 88.3817,31.8489 87.6667,32.0019 C86.9537,32.1579 86.3407,32.3939 85.8307,32.7069 C85.3177,33.0189 84.9217,33.4119 84.6467,33.8919 C84.3737,34.3689 84.2317,34.9299 84.2307,35.5739 C84.2307,35.9739 84.3067,36.3569 84.4527,36.7189 C84.5957,37.0829 84.8077,37.4079 85.0777,37.6919 C85.3587,37.9799 85.6937,38.2049 86.0917,38.3679 C86.4857,38.5369 86.9387,38.6199 87.4427,38.6239 C88.0337,38.6239 88.5787,38.5179 89.0657,38.3129 C89.5497,38.1059 89.9617,37.7999 90.2867,37.4019 L90.3527,37.4019 L90.5347,38.4029 L93.3187,38.4029 C93.2797,38.2149 93.2467,37.9969 93.2247,37.7439 C93.2007,37.4889 93.1827,37.2149 93.1687,36.9169 C93.1587,36.6209 93.1537,36.3179 93.1537,35.9999 L93.1537,32.5259 Z M73.8797,28.4579 L77.5007,38.4029 L80.5927,38.4029 L84.2937,28.4579 L81.0397,28.4579 L79.7607,33.0719 C79.6467,33.4989 79.5507,33.9089 79.4607,34.3019 C79.3707,34.6919 79.2917,35.0899 79.2107,35.4919 L79.1487,35.4919 C79.0697,35.0989 78.9867,34.7049 78.8957,34.3059 C78.8067,33.9099 78.7017,33.4989 78.5797,33.0719 L77.2387,28.4579 L73.8797,28.4579 Z M67.5837,32.3019 C67.6047,32.0969 67.6507,31.8759 67.7327,31.6439 C67.8117,31.4129 67.9257,31.1909 68.0797,30.9889 C68.2317,30.7819 68.4267,30.6149 68.6537,30.4899 C68.8897,30.3569 69.1677,30.2919 69.4897,30.2859 C69.8457,30.2919 70.1337,30.3609 70.3657,30.4959 C70.5927,30.6329 70.7737,30.8039 70.9017,31.0139 C71.0287,31.2219 71.1177,31.4419 71.1677,31.6669 C71.2227,31.8969 71.2447,32.1069 71.2427,32.3019 L67.5837,32.3019 Z M74.0037,34.4159 C74.0287,34.3019 74.0497,34.1349 74.0737,33.9199 C74.0947,33.7009 74.1087,33.4629 74.1087,33.1959 C74.1087,32.6989 74.0577,32.2119 73.9547,31.7349 C73.8547,31.2609 73.6887,30.8059 73.4757,30.3869 C73.2537,29.9669 72.9737,29.5959 72.6227,29.2719 C72.2737,28.9509 71.8597,28.6999 71.3677,28.5149 C70.8807,28.3299 70.3137,28.2369 69.6747,28.2369 C68.9847,28.2369 68.3657,28.3439 67.8257,28.5409 C67.2817,28.7469 66.8117,29.0249 66.4147,29.3739 C66.0157,29.7309 65.6857,30.1319 65.4267,30.5829 C65.1667,31.0369 64.9727,31.5159 64.8427,32.0189 C64.7157,32.5259 64.6517,33.0309 64.6517,33.5389 C64.6577,34.5829 64.8687,35.4839 65.2807,36.2349 C65.6937,36.9909 66.2917,37.5739 67.0857,37.9839 C67.8727,38.3899 68.8317,38.5969 69.9597,38.6059 C70.6337,38.6059 71.2727,38.5519 71.8837,38.4479 C72.4877,38.3459 73.0487,38.1849 73.5607,37.9739 L73.1537,35.8789 C72.7397,36.0239 72.3117,36.1319 71.8657,36.2009 C71.4167,36.2729 70.9337,36.3049 70.4057,36.3049 C70.0437,36.3049 69.7017,36.2679 69.3687,36.1909 C69.0457,36.1119 68.7537,35.9959 68.4917,35.8419 C68.2377,35.6859 68.0287,35.4889 67.8727,35.2529 C67.7127,35.0129 67.6267,34.7339 67.6047,34.4159 L74.0037,34.4159 Z M48.6037,38.4029 L51.6107,38.4029 L51.6107,32.6039 C51.6107,32.4769 51.6207,32.3399 51.6397,32.2039 C51.6527,32.0679 51.6857,31.9349 51.7357,31.8139 C51.7957,31.6479 51.8897,31.4769 52.0147,31.3109 C52.1397,31.1449 52.3027,31.0029 52.4937,30.8889 C52.6877,30.7799 52.9167,30.7169 53.1807,30.7159 C53.5097,30.7169 53.7807,30.8059 53.9967,30.9829 C54.2097,31.1589 54.3687,31.4029 54.4707,31.7139 C54.5707,32.0259 54.6227,32.3939 54.6227,32.8099 L54.6227,38.4029 L57.6337,38.4029 L57.6337,32.5839 C57.6337,32.4509 57.6437,32.3109 57.6587,32.1719 C57.6807,32.0339 57.7027,31.9089 57.7327,31.7909 C57.8097,31.5909 57.9117,31.4129 58.0457,31.2509 C58.1777,31.0869 58.3387,30.9589 58.5267,30.8629 C58.7157,30.7649 58.9347,30.7169 59.1787,30.7159 C59.6757,30.7169 60.0447,30.9199 60.2807,31.3109 C60.5217,31.7059 60.6467,32.2669 60.6447,32.9919 L60.6447,38.4029 L63.6517,38.4029 L63.6517,32.5459 C63.6467,31.7979 63.5627,31.1519 63.3987,30.6059 C63.2277,30.0629 62.9917,29.6139 62.6917,29.2579 C62.3877,28.9049 62.0337,28.6439 61.6267,28.4719 C61.2217,28.2999 60.7757,28.2129 60.2957,28.2129 C59.9327,28.2129 59.5937,28.2579 59.2827,28.3439 C58.9707,28.4259 58.6777,28.5499 58.4037,28.7029 C58.1577,28.8459 57.9307,29.0169 57.7197,29.2209 C57.5017,29.4239 57.2957,29.6579 57.1027,29.9219 L57.0637,29.9219 C56.9197,29.5749 56.7187,29.2719 56.4547,29.0169 C56.1977,28.7639 55.8877,28.5689 55.5277,28.4259 C55.1707,28.2829 54.7747,28.2179 54.3397,28.2129 C53.9187,28.2179 53.5417,28.2689 53.2177,28.3719 C52.8857,28.4719 52.6027,28.6039 52.3627,28.7639 C52.1167,28.9209 51.9117,29.0959 51.7417,29.2799 C51.5697,29.4609 51.4347,29.6359 51.3277,29.7989 L51.2707,29.7989 L51.1477,28.4579 L48.5217,28.4579 C48.5427,28.9049 48.5627,29.3899 48.5807,29.9129 C48.5947,30.4419 48.6037,31.0109 48.6037,31.6299 L48.6037,38.4029 Z M42.3967,30.4299 C42.7447,30.4329 43.0467,30.5179 43.2977,30.6869 C43.5457,30.8569 43.7507,31.0809 43.9067,31.3659 C44.0687,31.6489 44.1837,31.9669 44.2547,32.3189 C44.3307,32.6679 44.3677,33.0299 44.3677,33.3999 C44.3677,34.0089 44.2877,34.5359 44.1277,34.9859 C43.9687,35.4329 43.7457,35.7799 43.4507,36.0289 C43.1557,36.2779 42.8067,36.4039 42.3967,36.4079 C41.9547,36.3989 41.5827,36.2729 41.2827,36.0139 C40.9807,35.7509 40.7527,35.4019 40.5967,34.9559 C40.4387,34.5039 40.3627,33.9959 40.3627,33.4229 C40.3627,33.0499 40.4007,32.6889 40.4717,32.3369 C40.5487,31.9819 40.6677,31.6599 40.8297,31.3749 C40.9947,31.0869 41.2007,30.8589 41.4617,30.6929 C41.7197,30.5219 42.0297,30.4329 42.3967,30.4299 Z M42.4987,28.2129 C41.6877,28.2179 40.9627,28.3399 40.3087,28.5869 C39.6567,28.8299 39.0997,29.1849 38.6307,29.6459 C38.1647,30.1059 37.7997,30.6619 37.5507,31.3109 C37.3007,31.9599 37.1727,32.6889 37.1727,33.5009 C37.1727,34.3019 37.3057,35.0239 37.5677,35.6559 C37.8257,36.2899 38.1877,36.8249 38.6527,37.2659 C39.1207,37.7099 39.6617,38.0449 40.2847,38.2739 C40.9077,38.5079 41.5827,38.6199 42.3167,38.6239 C42.8507,38.6239 43.3767,38.5559 43.8837,38.4209 C44.3917,38.2849 44.8717,38.0829 45.3137,37.8029 C45.7527,37.5299 46.1457,37.1809 46.4847,36.7549 C46.8177,36.3379 47.0807,35.8409 47.2727,35.2659 C47.4637,34.6919 47.5597,34.0459 47.5597,33.3179 C47.5597,32.5609 47.4357,31.8759 47.1947,31.2509 C46.9547,30.6289 46.6117,30.0919 46.1657,29.6369 C45.7237,29.1849 45.1887,28.8349 44.5697,28.5869 C43.9477,28.3439 43.2567,28.2179 42.4987,28.2129 Z M30.9757,30.4299 C31.3257,30.4329 31.6277,30.5179 31.8787,30.6869 C32.1237,30.8569 32.3327,31.0809 32.4907,31.3659 C32.6467,31.6489 32.7627,31.9669 32.8367,32.3189 C32.9117,32.6679 32.9517,33.0299 32.9517,33.3999 C32.9517,34.0089 32.8697,34.5359 32.7087,34.9859 C32.5517,35.4329 32.3267,35.7799 32.0307,36.0289 C31.7357,36.2779 31.3887,36.4039 30.9757,36.4079 C30.5387,36.3989 30.1617,36.2729 29.8617,36.0139 C29.5597,35.7509 29.3347,35.4019 29.1787,34.9559 C29.0217,34.5039 28.9397,33.9959 28.9397,33.4229 C28.9397,33.0499 28.9817,32.6889 29.0557,32.3369 C29.1307,31.9819 29.2487,31.6599 29.4107,31.3749 C29.5737,31.0869 29.7857,30.8589 30.0437,30.6929 C30.2997,30.5219 30.6097,30.4329 30.9757,30.4299 Z M31.0777,28.2129 C30.2727,28.2179 29.5447,28.3399 28.8897,28.5869 C28.2387,28.8299 27.6797,29.1849 27.2117,29.6459 C26.7447,30.1059 26.3817,30.6619 26.1277,31.3109 C25.8817,31.9599 25.7547,32.6889 25.7507,33.5009 C25.7547,34.3019 25.8837,35.0239 26.1467,35.6559 C26.4087,36.2899 26.7697,36.8249 27.2327,37.2659 C27.7017,37.7099 28.2427,38.0449 28.8647,38.2739 C29.4887,38.5079 30.1617,38.6199 30.8947,38.6239 C31.4327,38.6239 31.9567,38.5559 32.4647,38.4209 C32.9747,38.2849 33.4497,38.0829 33.8967,37.8029 C34.3357,37.5299 34.7237,37.1809 35.0637,36.7549 C35.3987,36.3379 35.6597,35.8409 35.8527,35.2659 C36.0427,34.6919 36.1357,34.0459 36.1407,33.3179 C36.1357,32.5609 36.0147,31.8759 35.7757,31.2509 C35.5357,30.6289 35.1917,30.0919 34.7457,29.6369 C34.3007,29.1849 33.7657,28.8349 33.1507,28.5869 C32.5297,28.3439 31.8347,28.2179 31.0777,28.2129 Z M25.0877,35.5939 C24.8727,35.6809 24.6277,35.7599 24.3457,35.8279 C24.0667,35.8969 23.7647,35.9479 23.4447,35.9849 C23.1277,36.0239 22.8087,36.0419 22.4877,36.0419 C21.5667,36.0389 20.7857,35.8559 20.1327,35.4919 C19.4797,35.1329 18.9807,34.6159 18.6357,33.9499 C18.2887,33.2809 18.1177,32.4879 18.1137,31.5669 C18.1177,30.8059 18.2297,30.1439 18.4497,29.5749 C18.6717,29.0069 18.9777,28.5319 19.3767,28.1539 C19.7687,27.7799 20.2297,27.5009 20.7597,27.3139 C21.2847,27.1279 21.8527,27.0359 22.4667,27.0359 C23.0247,27.0379 23.5217,27.0889 23.9577,27.1909 C24.3957,27.2889 24.7647,27.4049 25.0657,27.5449 L25.7197,25.1039 C25.5327,25.0009 25.2777,24.8999 24.9567,24.8079 C24.6357,24.7189 24.2517,24.6439 23.8127,24.5859 C23.3717,24.5239 22.8777,24.4939 22.3437,24.4939 C21.5107,24.4939 20.7217,24.5939 19.9707,24.7999 C19.2277,25.0029 18.5407,25.3029 17.9177,25.6999 C17.2947,26.1009 16.7557,26.5939 16.3017,27.1759 C15.8427,27.7609 15.4917,28.4379 15.2417,29.1999 C14.9877,29.9669 14.8647,30.8169 14.8607,31.7519 C14.8607,32.7329 15.0137,33.6409 15.3137,34.4719 C15.6237,35.3059 16.0717,36.0329 16.6757,36.6519 C17.2747,37.2719 18.0247,37.7529 18.9197,38.0969 C19.8117,38.4439 20.8527,38.6159 22.0397,38.6239 C22.5907,38.6199 23.0957,38.5889 23.5577,38.5309 C24.0157,38.4679 24.4157,38.3939 24.7487,38.3059 C25.0877,38.2149 25.3507,38.1249 25.5347,38.0329 L25.0877,35.5939 Z" id="Fill-6" fill="#FEFEFE"></path>
                <polygon id="Fill-8" fill="#FEFEFE" points="97.416 42.0877 98.312 42.0877 98.312 24.9787 97.416 24.9787"></polygon>
                <path d="M109.6628,38.3781 C109.2048,38.6071 108.2878,38.8361 107.1138,38.8361 C104.3928,38.8361 102.3468,37.1181 102.3468,33.9541 C102.3468,30.9321 104.3928,28.8841 107.3868,28.8841 C108.5888,28.8841 109.3488,29.1421 109.6778,29.3151 L109.3768,30.3321 C108.9028,30.1021 108.2298,29.9301 107.4298,29.9301 C105.1668,29.9301 103.6638,31.3771 103.6638,33.9111 C103.6638,36.2731 105.0228,37.7911 107.3718,37.7911 C108.1308,37.7911 108.9028,37.6321 109.4048,37.3891 L109.6628,38.3781 Z" id="Fill-10" fill="#FEFEFE"></path>
                <path d="M111.5974,35.2424 C111.5974,36.7594 112.4704,37.9054 113.7024,37.9054 C114.9054,37.9054 115.8064,36.7744 115.8064,35.2144 C115.8064,34.0394 115.2194,32.5494 113.7314,32.5494 C112.2424,32.5494 111.5974,33.9244 111.5974,35.2424 M117.0954,35.1714 C117.0954,37.7334 115.3204,38.8494 113.6454,38.8494 C111.7694,38.8494 110.3244,37.4754 110.3244,35.2854 C110.3244,32.9664 111.8414,31.6054 113.7594,31.6054 C115.7504,31.6054 117.0954,33.0514 117.0954,35.1714" id="Fill-11" fill="#FEFEFE"></path>
                <path d="M118.5515,33.924 C118.5515,33.109 118.5365,32.407 118.4935,31.762 L119.5975,31.762 L119.6405,33.123 L119.6965,33.123 C120.0125,32.193 120.7715,31.605 121.6145,31.605 C121.7585,31.605 121.8595,31.62 121.9735,31.648 L121.9735,32.837 C121.8445,32.808 121.7155,32.794 121.5435,32.794 C120.6555,32.794 120.0275,33.466 119.8555,34.412 C119.8245,34.584 119.7975,34.784 119.7975,34.999 L119.7975,38.693 L118.5515,38.693 L118.5515,33.924 Z" id="Fill-12" fill="#FEFEFE"></path>
                <path d="M123.1159,33.924 C123.1159,33.109 123.1009,32.407 123.0579,31.762 L124.1609,31.762 L124.2039,33.123 L124.2609,33.123 C124.5759,32.193 125.3359,31.605 126.1789,31.605 C126.3229,31.605 126.4229,31.62 126.5379,31.648 L126.5379,32.837 C126.4089,32.808 126.2799,32.794 126.1079,32.794 C125.2199,32.794 124.5899,33.466 124.4189,34.412 C124.3889,34.584 124.3609,34.784 124.3609,34.999 L124.3609,38.693 L123.1159,38.693 L123.1159,33.924 Z" id="Fill-13" fill="#FEFEFE"></path>
                <path d="M131.9861,34.5544 C132.0011,33.7534 131.6571,32.5064 130.2391,32.5064 C128.9651,32.5064 128.4071,33.6804 128.3071,34.5544 L131.9861,34.5544 Z M128.2931,35.4574 C128.3211,37.1604 129.4091,37.8624 130.6701,37.8624 C131.5711,37.8624 132.1151,37.7044 132.5881,37.5044 L132.8021,38.4064 C132.3581,38.6064 131.6001,38.8364 130.4971,38.8364 C128.3641,38.8364 127.0901,37.4324 127.0901,35.3414 C127.0901,33.2524 128.3211,31.6054 130.3401,31.6054 C132.6021,31.6054 133.2031,33.5954 133.2031,34.8704 C133.2031,35.1284 133.1741,35.3284 133.1601,35.4574 L128.2931,35.4574 Z" id="Fill-14" fill="#FEFEFE"></path>
                <path d="M139.448,34.5837 C139.448,34.4257 139.434,34.2117 139.391,34.0537 C139.205,33.2527 138.518,32.5927 137.574,32.5927 C136.27,32.5927 135.497,33.7387 135.497,35.2707 C135.497,36.6727 136.184,37.8337 137.545,37.8337 C138.389,37.8337 139.162,37.2747 139.391,36.3307 C139.434,36.1587 139.448,35.9867 139.448,35.7867 L139.448,34.5837 Z M140.709,28.5267 L140.709,36.9027 C140.709,37.5187 140.723,38.2197 140.766,38.6927 L139.635,38.6927 L139.577,37.4897 L139.549,37.4897 C139.162,38.2627 138.318,38.8497 137.187,38.8497 C135.511,38.8497 134.223,37.4327 134.223,35.3287 C134.208,33.0227 135.64,31.6047 137.329,31.6047 C138.389,31.6047 139.105,32.1057 139.42,32.6657 L139.448,32.6657 L139.448,28.5267 L140.709,28.5267 Z" id="Fill-15" fill="#FEFEFE"></path>
                <path d="M143.4372,35.2424 C143.4372,36.7594 144.3102,37.9054 145.5422,37.9054 C146.7452,37.9054 147.6462,36.7744 147.6462,35.2144 C147.6462,34.0394 147.0592,32.5494 145.5712,32.5494 C144.0822,32.5494 143.4372,33.9244 143.4372,35.2424 M148.9352,35.1714 C148.9352,37.7334 147.1602,38.8494 145.4852,38.8494 C143.6092,38.8494 142.1642,37.4754 142.1642,35.2854 C142.1642,32.9664 143.6812,31.6054 145.5992,31.6054 C147.5902,31.6054 148.9352,33.0514 148.9352,35.1714" id="Fill-16" fill="#FEFEFE"></path>
                <path d="M150.3904,33.924 C150.3904,33.109 150.3754,32.407 150.3324,31.762 L151.4354,31.762 L151.4784,33.123 L151.5354,33.123 C151.8504,32.193 152.6104,31.605 153.4534,31.605 C153.5974,31.605 153.6974,31.62 153.8124,31.648 L153.8124,32.837 C153.6834,32.808 153.5544,32.794 153.3824,32.794 C152.4944,32.794 151.8644,33.466 151.6934,34.412 C151.6634,34.584 151.6354,34.784 151.6354,34.999 L151.6354,38.693 L150.3904,38.693 L150.3904,33.924 Z" id="Fill-17" fill="#FEFEFE"></path>
                <path d="M159.2605,34.5544 C159.2755,33.7534 158.9315,32.5064 157.5135,32.5064 C156.2395,32.5064 155.6815,33.6804 155.5815,34.5544 L159.2605,34.5544 Z M155.5675,35.4574 C155.5955,37.1604 156.6835,37.8624 157.9445,37.8624 C158.8455,37.8624 159.3895,37.7044 159.8625,37.5044 L160.0765,38.4064 C159.6325,38.6064 158.8745,38.8364 157.7715,38.8364 C155.6385,38.8364 154.3645,37.4324 154.3645,35.3414 C154.3645,33.2524 155.5955,31.6054 157.6145,31.6054 C159.8765,31.6054 160.4775,33.5954 160.4775,34.8704 C160.4775,35.1284 160.4485,35.3284 160.4345,35.4574 L155.5675,35.4574 Z" id="Fill-18" fill="#FEFEFE"></path>
                <path d="M161.6804,37.404 C162.0524,37.647 162.7104,37.905 163.3404,37.905 C164.2564,37.905 164.6874,37.447 164.6874,36.875 C164.6874,36.273 164.3274,35.944 163.3984,35.6 C162.1534,35.156 161.5664,34.468 161.5664,33.638 C161.5664,32.522 162.4674,31.605 163.9554,31.605 C164.6594,31.605 165.2744,31.805 165.6594,32.035 L165.3454,32.951 C165.0744,32.779 164.5734,32.55 163.9274,32.55 C163.1834,32.55 162.7684,32.98 162.7684,33.496 C162.7684,34.068 163.1834,34.326 164.0844,34.67 C165.2874,35.128 165.9044,35.729 165.9044,36.759 C165.9044,37.976 164.9584,38.836 163.3124,38.836 C162.5534,38.836 161.8524,38.65 161.3664,38.363 L161.6804,37.404 Z" id="Fill-19" fill="#FEFEFE"></path>
                <path d="M174.9939,34.5837 C174.9939,34.4257 174.9799,34.2117 174.9369,34.0537 C174.7509,33.2527 174.0639,32.5927 173.1189,32.5927 C171.8159,32.5927 171.0419,33.7387 171.0419,35.2707 C171.0419,36.6727 171.7299,37.8337 173.0899,37.8337 C173.9339,37.8337 174.7079,37.2747 174.9369,36.3307 C174.9799,36.1587 174.9939,35.9867 174.9939,35.7867 L174.9939,34.5837 Z M176.2539,28.5267 L176.2539,36.9027 C176.2539,37.5187 176.2679,38.2197 176.3109,38.6927 L175.1809,38.6927 L175.1229,37.4897 L175.0949,37.4897 C174.7079,38.2627 173.8639,38.8497 172.7319,38.8497 C171.0559,38.8497 169.7679,37.4327 169.7679,35.3287 C169.7539,33.0227 171.1859,31.6047 172.8749,31.6047 C173.9339,31.6047 174.6509,32.1057 174.9659,32.6657 L174.9939,32.6657 L174.9939,28.5267 L176.2539,28.5267 Z" id="Fill-20" fill="#FEFEFE"></path>
                <path d="M182.6052,34.5544 C182.6202,33.7534 182.2762,32.5064 180.8582,32.5064 C179.5842,32.5064 179.0252,33.6804 178.9262,34.5544 L182.6052,34.5544 Z M178.9112,35.4574 C178.9392,37.1604 180.0282,37.8624 181.2882,37.8624 C182.1892,37.8624 182.7342,37.7044 183.2072,37.5044 L183.4212,38.4064 C182.9772,38.6064 182.2192,38.8364 181.1162,38.8364 C178.9822,38.8364 177.7092,37.4324 177.7092,35.3414 C177.7092,33.2524 178.9392,31.6054 180.9592,31.6054 C183.2212,31.6054 183.8222,33.5954 183.8222,34.8704 C183.8222,35.1284 183.7932,35.3284 183.7792,35.4574 L178.9112,35.4574 Z" id="Fill-21" fill="#FEFEFE"></path>
                <path d="M188.0017,37.1745 C188.5617,37.5185 189.3767,37.8045 190.2347,37.8045 C191.5097,37.8045 192.2547,37.1315 192.2547,36.1585 C192.2547,35.2555 191.7377,34.7405 190.4367,34.2395 C188.8597,33.6805 187.8877,32.8655 187.8877,31.5055 C187.8877,30.0025 189.1337,28.8845 191.0087,28.8845 C191.9967,28.8845 192.7127,29.1145 193.1427,29.3575 L192.7987,30.3745 C192.4827,30.2025 191.8397,29.9165 190.9657,29.9165 C189.6477,29.9165 189.1477,30.7035 189.1477,31.3625 C189.1477,32.2635 189.7337,32.7085 191.0647,33.2225 C192.6977,33.8535 193.5277,34.6405 193.5277,36.0575 C193.5277,37.5485 192.4267,38.8365 190.1487,38.8365 C189.2197,38.8365 188.2017,38.5635 187.6877,38.2195 L188.0017,37.1745 Z" id="Fill-22" fill="#FEFEFE"></path>
                <path d="M199.4734,34.5544 C199.4884,33.7534 199.1444,32.5064 197.7264,32.5064 C196.4524,32.5064 195.8944,33.6804 195.7944,34.5544 L199.4734,34.5544 Z M195.7804,35.4574 C195.8084,37.1604 196.8964,37.8624 198.1574,37.8624 C199.0584,37.8624 199.6024,37.7044 200.0754,37.5044 L200.2894,38.4064 C199.8454,38.6064 199.0874,38.8364 197.9844,38.8364 C195.8514,38.8364 194.5774,37.4324 194.5774,35.3414 C194.5774,33.2524 195.8084,31.6054 197.8274,31.6054 C200.0894,31.6054 200.6904,33.5954 200.6904,34.8704 C200.6904,35.1284 200.6614,35.3284 200.6474,35.4574 L195.7804,35.4574 Z" id="Fill-23" fill="#FEFEFE"></path>
                <path d="M206.8786,34.4977 C206.8786,34.2827 206.8636,34.0967 206.8076,33.9237 C206.5776,33.1947 205.9626,32.5927 205.0466,32.5927 C203.8436,32.5927 202.9836,33.6097 202.9836,35.2137 C202.9836,36.5737 203.6716,37.7047 205.0316,37.7047 C205.8056,37.7047 206.5066,37.2177 206.7776,36.4167 C206.8506,36.2017 206.8786,35.9577 206.8786,35.7437 L206.8786,34.4977 Z M208.1826,31.7627 C208.1526,32.2637 208.1246,32.8227 208.1246,33.6677 L208.1246,37.6897 C208.1246,39.2797 207.8106,40.2537 207.1376,40.8537 C206.4636,41.4847 205.4896,41.6847 204.6166,41.6847 C203.7856,41.6847 202.8696,41.4847 202.3126,41.1127 L202.6266,40.1527 C203.0846,40.4387 203.8006,40.6967 204.6596,40.6967 C205.9476,40.6967 206.8946,40.0237 206.8946,38.2777 L206.8946,37.5047 L206.8636,37.5047 C206.4776,38.1477 205.7326,38.6647 204.6596,38.6647 C202.9406,38.6647 201.7106,37.2037 201.7106,35.2857 C201.7106,32.9367 203.2416,31.6047 204.8316,31.6047 C206.0336,31.6047 206.6916,32.2357 206.9926,32.8077 L207.0216,32.8077 L207.0786,31.7627 L208.1826,31.7627 Z" id="Fill-24" fill="#FEFEFE"></path>
                <path d="M215.8015,36.8019 C215.8015,37.5179 215.8155,38.1479 215.8585,38.6929 L214.7415,38.6929 L214.6705,37.5609 L214.6425,37.5609 C214.3115,38.1199 213.5815,38.8499 212.3515,38.8499 C211.2635,38.8499 209.9595,38.2489 209.9595,35.8149 L209.9595,31.7619 L211.2205,31.7619 L211.2205,35.5999 C211.2205,36.9179 211.6205,37.8039 212.7665,37.8039 C213.6105,37.8039 214.1975,37.2179 214.4275,36.6599 C214.4985,36.4729 214.5415,36.2439 214.5415,36.0149 L214.5415,31.7619 L215.8015,31.7619 L215.8015,36.8019 Z" id="Fill-25" fill="#FEFEFE"></path>
                <path d="M217.696,33.924 C217.696,33.109 217.681,32.407 217.638,31.762 L218.741,31.762 L218.784,33.123 L218.841,33.123 C219.157,32.193 219.916,31.605 220.759,31.605 C220.903,31.605 221.004,31.62 221.118,31.648 L221.118,32.837 C220.989,32.808 220.86,32.794 220.688,32.794 C219.8,32.794 219.172,33.466 219,34.412 C218.969,34.584 218.941,34.784 218.941,34.999 L218.941,38.693 L217.696,38.693 L217.696,33.924 Z" id="Fill-26" fill="#FEFEFE"></path>
                <path d="M222.9372,35.2424 C222.9372,36.7594 223.8102,37.9054 225.0422,37.9054 C226.2452,37.9054 227.1462,36.7744 227.1462,35.2144 C227.1462,34.0394 226.5592,32.5494 225.0712,32.5494 C223.5822,32.5494 222.9372,33.9244 222.9372,35.2424 M228.4352,35.1714 C228.4352,37.7334 226.6602,38.8494 224.9852,38.8494 C223.1092,38.8494 221.6642,37.4754 221.6642,35.2854 C221.6642,32.9664 223.1802,31.6054 225.0992,31.6054 C227.0902,31.6054 228.4352,33.0514 228.4352,35.1714" id="Fill-27" fill="#FEFEFE"></path>
                <path d="M229.6306,37.404 C230.0026,37.647 230.6616,37.905 231.2916,37.905 C232.2076,37.905 232.6376,37.447 232.6376,36.875 C232.6376,36.273 232.2786,35.944 231.3496,35.6 C230.1046,35.156 229.5166,34.468 229.5166,33.638 C229.5166,32.522 230.4186,31.605 231.9066,31.605 C232.6096,31.605 233.2256,31.805 233.6106,32.035 L233.2966,32.951 C233.0256,32.779 232.5236,32.55 231.8786,32.55 C231.1346,32.55 230.7196,32.98 230.7196,33.496 C230.7196,34.068 231.1346,34.326 232.0356,34.67 C233.2376,35.128 233.8556,35.729 233.8556,36.759 C233.8556,37.976 232.9086,38.836 231.2636,38.836 C230.5046,38.836 229.8026,38.65 229.3166,38.363 L229.6306,37.404 Z" id="Fill-28" fill="#FEFEFE"></path>
                <path d="M26.3718,48.1525 L26.3718,41.6295 L27.2928,41.6295 L29.3838,44.9295 C29.8668,45.6945 30.2448,46.3815 30.5538,47.0495 L30.5738,47.0405 C30.4958,46.1685 30.4768,45.3755 30.4768,44.3585 L30.4768,41.6295 L31.2688,41.6295 L31.2688,48.1525 L30.4178,48.1525 L28.3478,44.8435 C27.8918,44.1165 27.4568,43.3725 27.1278,42.6655 L27.0998,42.6745 C27.1468,43.4975 27.1668,44.2815 27.1668,45.3645 L27.1668,48.1525 L26.3718,48.1525 Z" id="Fill-29" fill="#FEFEFE"></path>
                <path d="M33.1853,45.82 C33.1853,46.846 33.7753,47.62 34.6083,47.62 C35.4213,47.62 36.0313,46.856 36.0313,45.801 C36.0313,45.008 35.6333,44.001 34.6263,44.001 C33.6213,44.001 33.1853,44.929 33.1853,45.82 M36.9023,45.772 C36.9023,47.504 35.7023,48.258 34.5693,48.258 C33.3013,48.258 32.3243,47.33 32.3243,45.85 C32.3243,44.282 33.3493,43.362 34.6463,43.362 C35.9923,43.362 36.9023,44.34 36.9023,45.772" id="Fill-30" fill="#FEFEFE"></path>
                <path d="M37.7224,47.2819 C37.9754,47.4459 38.4194,47.6199 38.8454,47.6199 C39.4654,47.6199 39.7554,47.3099 39.7554,46.9229 C39.7554,46.5169 39.5134,46.2949 38.8844,46.0619 C38.0424,45.7619 37.6464,45.2979 37.6464,44.7359 C37.6464,43.9809 38.2564,43.3619 39.2624,43.3619 C39.7374,43.3619 40.1524,43.4969 40.4134,43.6529 L40.2004,44.2719 C40.0174,44.1559 39.6774,44.0009 39.2424,44.0009 C38.7404,44.0009 38.4584,44.2909 38.4584,44.6389 C38.4584,45.0259 38.7404,45.2009 39.3494,45.4329 C40.1624,45.7419 40.5774,46.1489 40.5774,46.8459 C40.5774,47.6689 39.9394,48.2489 38.8264,48.2489 C38.3144,48.2489 37.8394,48.1229 37.5104,47.9289 L37.7224,47.2819 Z" id="Fill-31" fill="#FEFEFE"></path>
                <path d="M43.362,48.1525 L43.362,44.1165 L42.703,44.1165 L42.703,43.4685 L43.362,43.4685 L43.362,43.2455 C43.362,42.5875 43.507,41.9885 43.903,41.6105 C44.222,41.3005 44.649,41.1755 45.045,41.1755 C45.344,41.1755 45.607,41.2425 45.77,41.3095 L45.655,41.9675 C45.529,41.9105 45.354,41.8615 45.112,41.8615 C44.386,41.8615 44.203,42.5005 44.203,43.2165 L44.203,43.4685 L45.336,43.4685 L45.336,44.1165 L44.203,44.1165 L44.203,48.1525 L43.362,48.1525 Z" id="Fill-32" fill="#FEFEFE"></path>
                <path d="M48.5339,45.7624 C47.6039,45.7424 46.5499,45.9074 46.5499,46.8174 C46.5499,47.3694 46.9179,47.6304 47.3529,47.6304 C47.9639,47.6304 48.3499,47.2424 48.4859,46.8464 C48.5139,46.7594 48.5339,46.6624 48.5339,46.5754 L48.5339,45.7624 Z M48.6589,48.1524 L48.5929,47.5624 L48.5619,47.5624 C48.3019,47.9294 47.7989,48.2584 47.1309,48.2584 C46.1809,48.2584 45.6979,47.5914 45.6979,46.9134 C45.6979,45.7814 46.7049,45.1614 48.5139,45.1714 L48.5139,45.0744 C48.5139,44.6874 48.4079,43.9914 47.4499,43.9914 C47.0139,43.9914 46.5589,44.1254 46.2299,44.3394 L46.0369,43.7784 C46.4239,43.5264 46.9849,43.3614 47.5769,43.3614 C49.0089,43.3614 49.3559,44.3394 49.3559,45.2784 L49.3559,47.0294 C49.3559,47.4364 49.3759,47.8324 49.4339,48.1524 L48.6589,48.1524 Z" id="Fill-33" fill="#FEFEFE"></path>
                <path d="M53.9714,47.9777 C53.7484,48.0947 53.2554,48.2487 52.6264,48.2487 C51.2134,48.2487 50.2944,47.2907 50.2944,45.8587 C50.2944,44.4177 51.2814,43.3727 52.8114,43.3727 C53.3134,43.3727 53.7584,43.4977 53.9914,43.6137 L53.7974,44.2717 C53.5944,44.1557 53.2744,44.0497 52.8114,44.0497 C51.7364,44.0497 51.1564,44.8437 51.1564,45.8197 C51.1564,46.9047 51.8514,47.5717 52.7814,47.5717 C53.2654,47.5717 53.5844,47.4457 53.8264,47.3397 L53.9714,47.9777 Z" id="Fill-34" fill="#FEFEFE"></path>
                <path d="M54.824,48.1527 L55.676,48.1527 L55.676,43.4687 L54.824,43.4687 L54.824,48.1527 Z M55.772,42.1517 C55.782,42.4427 55.568,42.6747 55.229,42.6747 C54.929,42.6747 54.717,42.4427 54.717,42.1517 C54.717,41.8527 54.939,41.6207 55.25,41.6207 C55.568,41.6207 55.772,41.8527 55.772,42.1517 Z" id="Fill-35" fill="#FEFEFE"></path>
                <polygon id="Fill-36" fill="#FEFEFE" points="56.956 48.1527 57.808 48.1527 57.808 41.2817 56.956 41.2817"></polygon>
                <path d="M59.097,48.1527 L59.949,48.1527 L59.949,43.4687 L59.097,43.4687 L59.097,48.1527 Z M60.046,42.1517 C60.055,42.4427 59.842,42.6747 59.504,42.6747 C59.204,42.6747 58.991,42.4427 58.991,42.1517 C58.991,41.8527 59.213,41.6207 59.523,41.6207 C59.842,41.6207 60.046,41.8527 60.046,42.1517 Z" id="Fill-37" fill="#FEFEFE"></path>
                <path d="M62.2849,42.1227 L62.2849,43.4687 L63.5049,43.4687 L63.5049,44.1167 L62.2849,44.1167 L62.2849,46.6427 C62.2849,47.2247 62.4499,47.5517 62.9239,47.5517 C63.1449,47.5517 63.3109,47.5237 63.4169,47.4947 L63.4559,48.1337 C63.2909,48.2007 63.0299,48.2487 62.7009,48.2487 C62.3049,48.2487 61.9849,48.1227 61.7819,47.8917 C61.5399,47.6397 61.4529,47.2247 61.4529,46.6717 L61.4529,44.1167 L60.7269,44.1167 L60.7269,43.4687 L61.4529,43.4687 L61.4529,42.3457 L62.2849,42.1227 Z" id="Fill-38" fill="#FEFEFE"></path>
                <path d="M66.8874,45.7624 C65.9574,45.7424 64.9034,45.9074 64.9034,46.8174 C64.9034,47.3694 65.2714,47.6304 65.7064,47.6304 C66.3164,47.6304 66.7034,47.2424 66.8394,46.8464 C66.8664,46.7594 66.8874,46.6624 66.8874,46.5754 L66.8874,45.7624 Z M67.0124,48.1524 L66.9454,47.5624 L66.9154,47.5624 C66.6554,47.9294 66.1514,48.2584 65.4834,48.2584 C64.5344,48.2584 64.0514,47.5914 64.0514,46.9134 C64.0514,45.7814 65.0574,45.1614 66.8664,45.1714 L66.8664,45.0744 C66.8664,44.6874 66.7614,43.9914 65.8034,43.9914 C65.3674,43.9914 64.9124,44.1254 64.5834,44.3394 L64.3894,43.7784 C64.7774,43.5264 65.3384,43.3614 65.9294,43.3614 C67.3624,43.3614 67.7094,44.3394 67.7094,45.2784 L67.7094,47.0294 C67.7094,47.4364 67.7284,47.8324 67.7874,48.1524 L67.0124,48.1524 Z" id="Fill-39" fill="#FEFEFE"></path>
                <polygon id="Fill-40" fill="#FEFEFE" points="70.685 48.1527 71.538 48.1527 71.538 41.2817 70.685 41.2817"></polygon>
                <path d="M75.3161,45.7624 C74.3851,45.7424 73.3311,45.9074 73.3311,46.8174 C73.3311,47.3694 73.6991,47.6304 74.1341,47.6304 C74.7451,47.6304 75.1311,47.2424 75.2671,46.8464 C75.2951,46.7594 75.3161,46.6624 75.3161,46.5754 L75.3161,45.7624 Z M75.4401,48.1524 L75.3741,47.5624 L75.3431,47.5624 C75.0841,47.9294 74.5801,48.2584 73.9121,48.2584 C72.9621,48.2584 72.4791,47.5914 72.4791,46.9134 C72.4791,45.7814 73.4861,45.1614 75.2951,45.1714 L75.2951,45.0744 C75.2951,44.6874 75.1891,43.9914 74.2311,43.9914 C73.7951,43.9914 73.3401,44.1254 73.0111,44.3394 L72.8181,43.7784 C73.2051,43.5264 73.7661,43.3614 74.3581,43.3614 C75.7901,43.3614 76.1381,44.3394 76.1381,45.2784 L76.1381,47.0294 C76.1381,47.4364 76.1571,47.8324 76.2151,48.1524 L75.4401,48.1524 Z" id="Fill-41" fill="#FEFEFE"></path>
                <path d="M79.4431,43.4689 L80.3621,46.1009 C80.5161,46.5269 80.6431,46.9139 80.7401,47.3009 L80.7691,47.3009 C80.8761,46.9139 81.0111,46.5269 81.1661,46.1009 L82.0751,43.4689 L82.9651,43.4689 L81.1271,48.1529 L80.3141,48.1529 L78.5341,43.4689 L79.4431,43.4689 Z" id="Fill-42" fill="#FEFEFE"></path>
                <path d="M83.708,48.1527 L84.56,48.1527 L84.56,43.4687 L83.708,43.4687 L83.708,48.1527 Z M84.656,42.1517 C84.666,42.4427 84.452,42.6747 84.113,42.6747 C83.814,42.6747 83.601,42.4427 83.601,42.1517 C83.601,41.8527 83.823,41.6207 84.134,41.6207 C84.452,41.6207 84.656,41.8527 84.656,42.1517 Z" id="Fill-43" fill="#FEFEFE"></path>
                <path d="M89.0818,45.3752 C89.0818,45.2682 89.0718,45.1232 89.0428,45.0172 C88.9168,44.4752 88.4528,44.0292 87.8128,44.0292 C86.9338,44.0292 86.4108,44.8042 86.4108,45.8392 C86.4108,46.7872 86.8758,47.5722 87.7948,47.5722 C88.3658,47.5722 88.8888,47.1942 89.0428,46.5552 C89.0718,46.4392 89.0818,46.3242 89.0818,46.1882 L89.0818,45.3752 Z M89.9338,41.2812 L89.9338,46.9432 C89.9338,47.3582 89.9428,47.8332 89.9728,48.1522 L89.2078,48.1522 L89.1698,47.3392 L89.1488,47.3392 C88.8888,47.8622 88.3168,48.2582 87.5528,48.2582 C86.4208,48.2582 85.5498,47.3012 85.5498,45.8782 C85.5398,44.3202 86.5078,43.3612 87.6488,43.3612 C88.3658,43.3612 88.8498,43.7012 89.0608,44.0772 L89.0818,44.0772 L89.0818,41.2812 L89.9338,41.2812 Z" id="Fill-44" fill="#FEFEFE"></path>
                <path d="M93.697,45.7624 C92.767,45.7424 91.713,45.9074 91.713,46.8174 C91.713,47.3694 92.081,47.6304 92.516,47.6304 C93.126,47.6304 93.513,47.2424 93.648,46.8464 C93.676,46.7594 93.697,46.6624 93.697,46.5754 L93.697,45.7624 Z M93.822,48.1524 L93.755,47.5624 L93.725,47.5624 C93.465,47.9294 92.961,48.2584 92.293,48.2584 C91.344,48.2584 90.861,47.5914 90.861,46.9134 C90.861,45.7814 91.867,45.1614 93.676,45.1714 L93.676,45.0744 C93.676,44.6874 93.571,43.9914 92.613,43.9914 C92.177,43.9914 91.722,44.1254 91.392,44.3394 L91.199,43.7784 C91.587,43.5264 92.148,43.3614 92.739,43.3614 C94.172,43.3614 94.519,44.3394 94.519,45.2784 L94.519,47.0294 C94.519,47.4364 94.538,47.8324 94.597,48.1524 L93.822,48.1524 Z" id="Fill-45" fill="#FEFEFE"></path>
            </g>
        </g>
    </g>
</svg>