<?xml version="1.0" encoding="UTF-8"?>
<svg width="35px" height="38px" viewBox="0 0 35 38" version="1.1" xmlns="http://www.w3.org/2000/svg" xmlns:xlink="http://www.w3.org/1999/xlink">
    <!-- Generator: sketchtool 50.2 (55047) - http://www.bohemiancoding.com/sketch -->
    <title>8ECA08FF-EDE5-46A2-A8CA-312F223E05E8</title>
    <desc>Created with sketchtool.</desc>
    <defs></defs>
    <g id="Designs_V2" stroke="none" stroke-width="1" fill="none" fill-rule="evenodd">
        <g id="Hogar1" transform="translate(-497.000000, -963.000000)" fill="#008444" fill-rule="nonzero">
            <g id="tab" transform="translate(0.000000, 720.000000)">
                <g id="Group-11" transform="translate(185.000000, 239.000000)">
                    <g id="Group-9" transform="translate(312.000000, 3.000000)">
                        <g id="Group-3" transform="translate(0.000000, 1.000000)">
                            <path d="M17.483908,0.578005 C26.7482514,0.578005 34.6193512,8.52448329 34.6777242,17.7590281 C34.6794752,18.1114002 34.4555953,18.4253763 34.1218877,18.5385504 C33.7881801,18.6517246 33.419491,18.5387132 33.2065271,18.2579722 C32.6854071,17.5618724 31.1838466,16.5436914 29.7652053,16.5436914 C28.3034116,16.5436914 26.8314531,17.5490425 26.3366765,18.2451587 C26.1808322,18.4580155 25.9319804,18.5827495 25.6681829,18.5802333 C25.4043854,18.5777171 25.1579583,18.4482589 25.0062026,18.232468 C24.5153928,17.5355167 23.047086,16.5437733 21.5776738,16.5437733 C20.2946385,16.5437733 18.9275213,17.4049583 18.3026612,18.0789518 L18.3026612,32.9188527 C18.3026612,34.7213787 19.3634337,35.7844887 21.1682972,35.7844887 C22.9732508,35.7845296 24.0339332,34.7214196 24.0339332,32.9188527 C24.0297573,32.6235809 24.1848911,32.3489339 24.4399307,32.2000793 C24.6949703,32.0512248 25.0104025,32.0512248 25.2654421,32.2000793 C25.5204817,32.3489339 25.6756154,32.6235809 25.6714395,32.9188527 C25.6714395,35.4743041 23.726561,37.4220359 21.1682972,37.421995 C18.6101071,37.421995 16.6651549,35.4743041 16.6651549,32.9188527 L16.6651549,18.0789518 C16.0402948,17.4049583 14.6731776,16.5437733 13.3901423,16.5437733 C11.9207751,16.5437733 10.452415,17.535529 9.96161346,18.232468 C9.80985779,18.4482589 9.56343065,18.5777171 9.29963315,18.5802333 C9.03583564,18.5827495 8.7869839,18.4580155 8.63113959,18.2451587 C8.13636297,17.5490425 6.66440446,16.5436914 5.20261078,16.5436914 C3.78395719,16.5436914 2.28240076,17.5618519 1.76128894,18.2579722 C1.54832498,18.5387131 1.17963599,18.6517244 0.845928439,18.5385503 C0.512220891,18.4253761 0.288341037,18.1114002 0.290092,17.7590281 C0.348505943,8.52448329 8.2196056,0.578005 17.483908,0.578005 Z M17.483908,2.2155113 C9.83393709,2.2155113 3.21360966,8.35865712 2.14507948,15.8016964 C3.00599842,15.2794465 4.0437271,14.9061851 5.20261078,14.9061851 C6.88825157,14.9061851 8.33152506,15.6432267 9.29637653,16.5564844 C10.2605894,15.6405125 11.7021926,14.9061851 13.3901423,14.9061851 C15.0738836,14.9061851 16.5140785,15.6884137 17.483908,16.5948635 C18.4537375,15.6884137 19.8939325,14.9061851 21.5776738,14.9061851 C23.265648,14.9061851 24.707239,15.6405125 25.6714395,16.5564844 C26.636291,15.6432267 28.0795645,14.9061851 29.7652053,14.9061851 C30.9240971,14.9061851 31.9618217,15.2794424 32.8227366,15.8016964 C31.7542391,8.35866122 25.1339158,2.2155113 17.483908,2.2155113 Z" id="Shape" transform="translate(17.483908, 19.000000) scale(-1, 1) translate(-17.483908, -19.000000) "></path>
                        </g>
                    </g>
                </g>
            </g>
        </g>
    </g>
</svg>