<?xml version="1.0" encoding="UTF-8"?>
<svg width="89px" height="59px" viewBox="0 0 89 59" version="1.1" xmlns="http://www.w3.org/2000/svg" xmlns:xlink="http://www.w3.org/1999/xlink">
    <!-- Generator: sketchtool 50.2 (55047) - http://www.bohemiancoding.com/sketch -->
    <title>5CADD2B4-9A4F-4966-AE36-4CCDDA379F5B</title>
    <desc>Created with sketchtool.</desc>
    <defs>
        <linearGradient x1="0%" y1="-3.24142267%" x2="107.192732%" y2="107.646343%" id="linearGradient-1">
            <stop stop-color="#F5B156" offset="0%"></stop>
            <stop stop-color="#E7792B" offset="100%"></stop>
        </linearGradient>
    </defs>
    <g id="Designs_V2" stroke="none" stroke-width="1" fill="none" fill-rule="evenodd">
        <g id="Hogar1" transform="translate(-813.000000, -1795.000000)" fill="url(#linearGradient-1)">
            <g id="items" transform="translate(91.000000, 1611.000000)">
                <g id="Group-5-Copy-2" transform="translate(635.050781, 184.648438)">
                    <g id="Group-6" transform="translate(87.000000, 0.000000)">
                        <path d="M84.6219706,17.2216875 L72.8229706,30.2686875 L67.4669706,25.3166875 C65.7879706,23.7676875 63.0209706,21.5086875 61.1659706,20.1756875 L53.5159706,14.6896875 C52.2189706,13.7706875 50.6309706,13.3736875 49.0599706,13.3676875 C47.7249706,13.3716875 46.3789706,13.6626875 45.2159706,14.3546875 L42.4529706,16.0156875 C42.0279706,16.2706875 41.5279706,16.4006875 41.0099706,16.4016875 C40.0809706,16.4046875 39.1519706,15.9716875 38.6349706,15.2666875 L38.0249706,14.4466875 L38.0229706,14.4446875 C37.6999706,14.0076875 37.5479706,13.5176875 37.5459706,13.0216875 C37.5509706,12.2716875 37.8959706,11.5436875 38.5659706,11.0706875 L46.7439706,5.3246875 C47.4509706,4.8126875 48.7099706,4.4536875 49.9039706,4.4626875 C50.7339706,4.4586875 51.5269706,4.6256875 52.0699706,4.8936875 L58.7279706,8.1186875 C59.8629706,8.6636875 61.1439706,8.8866875 62.4339706,8.8896875 C64.0899706,8.8816875 65.7639706,8.5216875 67.1429706,7.6746875 L73.9429706,3.4436875 C74.3779706,3.1726875 74.8979706,3.0326875 75.4409706,3.0326875 C76.3589706,3.0306875 77.2789706,3.4466875 77.8009706,4.1256875 L84.7729706,13.0476875 C85.1759706,13.5586875 85.4079706,14.2796875 85.4079706,15.0266875 C85.4089706,15.8626875 85.1139706,16.6846875 84.6219706,17.2216875 Z M74.4169706,39.1966875 L73.7179706,39.9466875 C73.2289706,40.4686875 72.5669706,40.7326875 71.8899706,40.7336875 C71.2739706,40.7326875 70.6729706,40.5166875 70.1939706,40.0746875 L58.4149706,29.1806875 L56.3779706,31.3616875 L68.9859706,43.0426875 C69.5119706,43.5286875 69.7749706,44.1886875 69.7789706,44.8626875 C69.7749706,45.4766875 69.5589706,46.0746875 69.1149706,46.5506875 L68.4189706,47.3006875 C67.9309706,47.8226875 67.2679706,48.0856875 66.5909706,48.0876875 C65.9759706,48.0856875 65.3709706,47.8676875 64.8969706,47.4296875 L53.1139706,36.5356875 L51.0789706,38.7166875 L61.5359706,48.3866875 C62.0409706,48.8686875 62.2989706,49.5126875 62.2989706,50.1726875 C62.2989706,50.7846875 62.0819706,51.3836875 61.6389706,51.8586875 L60.9389706,52.6086875 C60.4529706,53.1306875 59.7899706,53.3946875 59.1089706,53.3966875 C58.4919706,53.3946875 57.8909706,53.1776875 57.4149706,52.7386875 L46.9779706,43.1036875 L46.9759706,43.1036875 L46.9749706,43.1016875 L44.9429706,45.2856875 L44.9449706,45.2886875 L44.9839706,45.3256875 L50.2119706,50.1496875 C50.6749706,50.6256875 50.9149706,51.2356875 50.9169706,51.8666875 C50.9149706,52.4756875 50.6989706,53.0716875 50.2569706,53.5466875 L49.5579706,54.2976875 C49.0689706,54.8196875 48.4089706,55.0816875 47.7329706,55.0836875 C47.1179706,55.0816875 46.5169706,54.8656875 46.0409706,54.4246875 L41.4899706,50.2106875 C41.8859706,49.4336875 42.1059706,48.5906875 42.1059706,47.7436875 C42.1079706,46.3096875 41.5389706,44.8626875 40.4119706,43.7936875 L39.6649706,43.0856875 C38.6079706,42.0826875 37.2379706,41.5816875 35.8849706,41.5836875 C35.7799706,41.5836875 35.6729706,41.6076875 35.5709706,41.6136875 C35.5709706,41.5886875 35.5769706,41.5626875 35.5769706,41.5376875 C35.5789706,40.1026875 33.8809706,37.5846875 33.8809706,37.5846875 L33.1379706,36.8786875 C32.3469706,36.1286875 31.3809706,35.6606875 30.3769706,35.4726875 C30.5839706,34.8866875 30.7019706,34.2766875 30.7019706,33.6656875 C30.7019706,32.2306875 30.1339706,30.7826875 29.0059706,29.7146875 L28.2629706,29.0066875 C27.2039706,28.0026875 25.8319706,27.5016875 24.4789706,27.5026875 C24.3219706,27.5026875 24.1649706,27.5346875 24.0089706,27.5486875 C23.9649706,26.1706875 23.4109706,24.7936875 22.3299706,23.7676875 L22.3299706,23.7666875 L21.5879706,23.0616875 C20.5299706,22.0566875 19.1589706,21.5556875 17.8059706,21.5566875 C16.3629706,21.5556875 14.9099706,22.1216875 13.8339706,23.2436875 L12.0659706,25.0886875 L4.23397061,18.4086875 C3.67097061,17.9266875 3.39097061,17.2606875 3.38897061,16.5766875 C3.39097061,16.0036875 3.58497061,15.4426875 4.00097061,14.9766875 L12.2659706,5.7216875 C12.5939706,5.3536875 13.0789706,5.0206875 13.6459706,4.7896875 C14.2139706,4.5586875 14.8589706,4.4316875 15.4619706,4.4326875 C15.9879706,4.4326875 16.4799706,4.5276875 16.8739706,4.6976875 L21.4119706,6.6336875 C22.6899706,7.1726875 24.1759706,7.3936875 25.6669706,7.3986875 C27.1619706,7.3936875 28.6439706,7.1726875 29.9229706,6.6336875 L34.4579706,4.6986875 C35.1579706,4.3936875 36.2119706,4.2046875 37.2619706,4.2086875 C38.4209706,4.2016875 39.5829706,4.4416875 40.2569706,4.7856875 C40.6849706,4.9986875 41.0919706,5.2006875 41.4689706,5.3896875 L36.8439706,8.6406875 C35.3569706,9.6856875 34.5569706,11.3476875 34.5589706,13.0246875 C34.5569706,14.1346875 34.9089706,15.2646875 35.6239706,16.2236875 L35.6219706,16.2216875 L36.2329706,17.0426875 C37.3929706,18.5846875 39.2029706,19.3776875 41.0109706,19.3816875 C42.0319706,19.3816875 43.0719706,19.1236875 43.9979706,18.5676875 L46.7649706,16.9066875 C47.3279706,16.5616875 48.1809706,16.3436875 49.0609706,16.3476875 C50.0969706,16.3416875 51.1399706,16.6476875 51.7669706,17.1086875 L59.4189706,22.5946875 C61.1209706,23.8146875 63.8949706,26.0776875 65.4329706,27.5016875 L74.2899706,35.6906875 C74.8139706,36.1776875 75.0779706,36.8346875 75.0809706,37.5096875 C75.0789706,38.1216875 74.8599706,38.7206875 74.4169706,39.1966875 Z M34.2089706,53.8576875 C33.7239706,54.3656875 33.0729706,54.6186875 32.4049706,54.6216875 C31.7769706,54.6196875 31.1659706,54.3956875 30.6849706,53.9406875 L29.9409706,53.2336875 C29.4319706,52.7496875 29.1759706,52.1006875 29.1729706,51.4366875 C29.1759706,50.8126875 29.3999706,50.2026875 29.8569706,49.7266875 L34.0749706,45.3236875 C34.5619706,44.8156875 35.2129706,44.5606875 35.8809706,44.5596875 C36.5059706,44.5606875 37.1199706,44.7836875 37.6009706,45.2406875 L38.3469706,45.9476875 C38.8559706,46.4316875 39.1099706,47.0796875 39.1119706,47.7426875 C39.1099706,48.3676875 38.8859706,48.9766875 38.4289706,49.4546875 L34.2089706,53.8576875 Z M23.4129706,50.9846875 C22.7869706,50.9836875 22.1759706,50.7586875 21.6939706,50.3036875 L20.9489706,49.5966875 C20.4359706,49.1116875 20.1809706,48.4636875 20.1809706,47.7996875 C20.1809706,47.2426875 20.3699706,46.7046875 20.7309706,46.2556875 L27.6839706,38.9986875 C28.1529706,38.5756875 28.7419706,38.3526875 29.3509706,38.3526875 C29.9769706,38.3536875 30.5879706,38.5776875 31.0689706,39.0326875 L31.8149706,39.7406875 C32.3259706,40.2246875 32.5809706,40.8726875 32.5829706,41.5356875 C32.5809706,42.1596875 32.3539706,42.7696875 31.8989706,43.2476875 L25.2179706,50.2206875 C24.7309706,50.7286875 24.0809706,50.9826875 23.4129706,50.9846875 Z M15.2289706,46.5646875 C14.6019706,46.5636875 13.9919706,46.3386875 13.5109706,45.8846875 L12.7669706,45.1776875 L12.7649706,45.1766875 C12.2539706,44.6926875 11.9979706,44.0436875 11.9979706,43.3796875 C11.9979706,42.7566875 12.2239706,42.1486875 12.6809706,41.6696875 C12.6809706,41.6696875 22.6639706,31.2766875 22.7479706,31.1766875 C23.2259706,30.7176875 23.8399706,30.4806875 24.4759706,30.4796875 C25.1019706,30.4806875 25.7129706,30.7046875 26.1939706,31.1596875 L26.9379706,31.8676875 C27.4509706,32.3516875 27.7049706,32.9996875 27.7059706,33.6646875 C27.7049706,34.2876875 27.4789706,34.8966875 27.0219706,35.3756875 L17.0349706,45.8016875 C16.5469706,46.3086875 15.8969706,46.5626875 15.2289706,46.5646875 Z M8.58997061,36.6206875 C8.07697061,36.1346875 7.82297061,35.4876875 7.81997061,34.8236875 C7.82297061,34.2006875 8.04497061,33.5926875 8.50397061,33.1136875 L15.9949706,25.2976875 C16.4819706,24.7886875 17.1339706,24.5336875 17.8019706,24.5326875 C18.4269706,24.5336875 19.0379706,24.7586875 19.5199706,25.2136875 L20.2609706,25.9196875 C20.2609706,25.9196875 21.0259706,27.0526875 21.0279706,27.7176875 C21.0259706,28.2156875 20.8759706,28.7006875 20.5849706,29.1206875 C20.5599706,29.1456875 12.5009706,37.5446875 12.5009706,37.5446875 C12.0739706,37.8476875 11.5669706,38.0036875 11.0529706,38.0056875 C10.4259706,38.0036875 9.81197061,37.7796875 9.33297061,37.3256875 L8.58997061,36.6206875 Z M88.3969706,15.0256875 C88.3949706,13.6896875 88.0029706,12.3346875 87.1339706,11.2176875 L80.1599706,2.2956875 C78.9919706,0.8126875 77.2159706,0.0576875 75.4389706,0.0546875 C74.3829706,0.0546875 73.3069706,0.3256875 72.3549706,0.9186875 L65.5569706,5.1486875 C64.8419706,5.6046875 63.6149706,5.9176875 62.4319706,5.9096875 C61.5119706,5.9136875 60.6219706,5.7296875 60.0349706,5.4396875 L53.3779706,2.2146875 C52.3039706,1.6976875 51.1059706,1.4856875 49.9019706,1.4836875 C48.1739706,1.4916875 46.4229706,1.9166875 45.0159706,2.8916875 L44.2389706,3.4366875 C43.6179706,3.1266875 42.6679706,2.6546875 41.5939706,2.1196875 C40.3049706,1.4876875 38.7889706,1.2326875 37.2569706,1.2276875 C35.8739706,1.2316875 34.4919706,1.4446875 33.2769706,1.9576875 L28.7429706,3.8926875 C28.0039706,4.2126875 26.8299706,4.4216875 25.6639706,4.4166875 C24.4979706,4.4216875 23.3269706,4.2126875 22.5879706,3.8926875 L18.0489706,1.9566875 C17.2219706,1.6036875 16.3359706,1.4526875 15.4589706,1.4516875 C14.4499706,1.4526875 13.4449706,1.6516875 12.5129706,2.0296875 C11.5799706,2.4096875 10.7149706,2.9706875 10.0259706,3.7406875 L1.76297061,12.9956875 C0.84697061,14.0186875 0.39197061,15.3066875 0.39297061,16.5746875 C0.39197061,18.0866875 1.03797061,19.6036875 2.28697061,20.6666875 L9.99597061,27.2436875 L6.33797061,31.0586875 C5.32997061,32.1106875 4.82897061,33.4746875 4.82897061,34.8236875 C4.82697061,36.2586875 5.39597061,37.7076875 6.52497061,38.7746875 L7.26697061,39.4796875 C7.96697061,40.1426875 8.80697061,40.5646875 9.68497061,40.7896875 C9.24497061,41.6006875 9.00297061,42.4896875 9.00497061,43.3806875 C9.00297061,44.8166875 9.57397061,46.2646875 10.7009706,47.3326875 L10.6989706,47.3316875 L11.4419706,48.0396875 C12.5009706,49.0436875 13.8739706,49.5436875 15.2269706,49.5426875 C15.9549706,49.5436875 16.6829706,49.3976875 17.3669706,49.1116875 C17.6059706,50.0856875 18.1019706,51.0116875 18.8819706,51.7516875 L19.6259706,52.4596875 C20.6849706,53.4636875 22.0569706,53.9636875 23.4119706,53.9626875 C24.4709706,53.9636875 25.5349706,53.6516875 26.4509706,53.0456875 C26.7189706,53.9076875 27.1779706,54.7246875 27.8759706,55.3886875 L28.6209706,56.0966875 C29.6779706,57.1006875 31.0509706,57.6006875 32.4029706,57.5996875 C33.8449706,57.6006875 35.2989706,57.0346875 36.3739706,55.9126875 L39.6059706,52.5376875 L43.9969706,56.6016875 C45.0479706,57.5756875 46.3969706,58.0616875 47.7289706,58.0586875 C49.1919706,58.0616875 50.6689706,57.4756875 51.7449706,56.3226875 L52.4459706,55.5716875 C53.0519706,54.9216875 53.4459706,54.1526875 53.6759706,53.3496875 L55.3769706,54.9196875 C56.4299706,55.8906875 57.7759706,56.3736875 59.1059706,56.3726875 C60.5709706,56.3736875 62.0519706,55.7876875 63.1299706,54.6336875 L63.8259706,53.8836875 C64.6319706,53.0236875 65.0849706,51.9586875 65.2249706,50.8706875 C65.6739706,50.9856875 66.1289706,51.0636875 66.5879706,51.0636875 C68.0529706,51.0636875 69.5279706,50.4786875 70.6069706,49.3256875 L71.3069706,48.5756875 C72.2829706,47.5286875 72.7689706,46.1856875 72.7679706,44.8616875 C72.7679706,44.4506875 72.7089706,44.0416875 72.6169706,43.6376875 C73.8329706,43.4766875 75.0109706,42.9346875 75.9059706,41.9726875 L76.6069706,41.2216875 C77.5849706,40.1746875 78.0679706,38.8316875 78.0679706,37.5066875 C78.0699706,36.0486875 77.4819706,34.5776875 76.3219706,33.5056875 L75.0119706,32.2946875 L86.8439706,19.2126875 C87.9049706,18.0346875 88.3949706,16.5186875 88.3969706,15.0256875 Z" id="Fill-1"></path>
                    </g>
                </g>
            </g>
        </g>
    </g>
</svg>