<?xml version="1.0" encoding="UTF-8"?>
<svg width="79px" height="86px" viewBox="0 0 79 86" version="1.1" xmlns="http://www.w3.org/2000/svg" xmlns:xlink="http://www.w3.org/1999/xlink">
    <!-- Generator: sketchtool 50.2 (55047) - http://www.bohemiancoding.com/sketch -->
    <title>8AE91C16-0453-446A-9686-533C21D9D04E</title>
    <desc>Created with sketchtool.</desc>
    <defs>
        <linearGradient x1="0%" y1="-3.24142267%" x2="107.192732%" y2="107.646343%" id="linearGradient-1">
            <stop stop-color="#F5B156" offset="0%"></stop>
            <stop stop-color="#E7792B" offset="100%"></stop>
        </linearGradient>
    </defs>
    <g id="Designs_V2" stroke="none" stroke-width="1" fill="none" fill-rule="evenodd">
        <g id="Hogar1" transform="translate(-183.000000, -1777.000000)" fill="url(#linearGradient-1)" fill-rule="nonzero">
            <g id="items" transform="translate(91.000000, 1611.000000)">
                <g id="conrianza" transform="translate(91.785156, 165.484375)">
                    <g id="noun_1681585_cc" transform="translate(0.000000, 20.664816)">
                        <path d="M9.71877318,42.6078287 C9.99588562,42.8853381 10.3811298,43.0267569 10.7719736,42.9944465 C11.1677853,42.9639956 11.5294361,42.7587343 11.7585157,42.4345172 L13.3316505,40.2081316 L13.3316505,64.3250873 C13.3316505,65.061374 13.9285288,65.6582523 14.6648155,65.6582523 L22.6638058,65.6582523 C23.4000925,65.6582523 23.9969708,65.061374 23.9969708,64.3250873 L23.9969708,42.9944465 L33.3291261,42.9944465 L33.3291261,49.6602717 L29.329631,49.6602717 C28.5933443,49.6602717 27.996466,50.2571501 27.996466,50.9934368 L27.996466,64.3250873 C27.996466,65.061374 28.5933443,65.6582523 29.329631,65.6582523 L55.9929319,65.6582523 C56.7292187,65.6582523 57.326097,65.061374 57.326097,64.3250873 L57.326097,50.9934368 C57.326097,50.2571501 56.7292187,49.6602717 55.9929319,49.6602717 L43.9944465,49.6602717 L43.9944465,38.9949514 C43.9944465,35.3135178 41.0100549,32.3291261 37.3286213,32.3291261 L29.329631,32.3291261 L29.329631,25.01005 L47.4340123,12.0783491 C47.7273642,11.8707187 47.9244597,11.553443 47.98061,11.1984602 C48.033751,10.8446829 47.9424773,10.4843919 47.7273086,10.1985864 L43.7278135,4.8659262 C43.296892,4.29297946 42.4900193,4.16340865 41.9013774,4.57262989 L28.2364357,14.0247701 C30.4920769,9.77499099 29.1470845,4.50689046 25.1302852,1.85852063 C21.1134858,-0.789849196 15.7416041,0.0496589768 12.7243614,3.79729643 C9.70711877,7.54493389 10.0335807,12.9722086 13.4782986,16.3311456 L11.9984854,16.3311456 C11.6222953,16.3320348 11.2639903,16.4918194 11.0119433,16.7710901 L2.39969708,26.3432151 C0.035192887,28.9849985 0.152356401,33.0154234 2.66633009,35.5153906 L9.71877318,42.6078287 Z M13.3316505,33.2756733 L11.1985864,30.9959611 L13.3316505,28.862897 L13.3316505,33.2756733 Z M54.6597669,62.9919222 L30.6627961,62.9919222 L30.6627961,52.3266018 L54.6597669,52.3266018 L54.6597669,62.9919222 Z M23.1704085,18.9974757 L21.3306407,22.6770112 L19.490873,18.9974757 L23.1704085,18.9974757 Z M13.3316505,9.66532037 C13.3316505,5.98388675 16.3160421,2.99949514 19.9974757,2.99949514 C23.6789093,2.99949514 26.6633009,5.98388675 26.6633009,9.66532037 C26.6633009,13.346754 23.6789093,16.3311456 19.9974757,16.3311456 C18.2295889,16.3311456 16.5341102,15.6288553 15.2840255,14.3787706 C14.0339407,13.1286859 13.3316505,11.4332071 13.3316505,9.66532037 Z M4.37278135,28.1296563 L12.5984097,18.9974757 L16.5045833,18.9974757 L20.1441238,26.2632252 C20.372223,26.7084573 20.83038,26.9885196 21.3306407,26.9885196 C21.8309015,26.9885196 22.2890585,26.7084573 22.5171576,26.2632252 L26.3700046,18.5708629 L42.3679852,7.49226134 L44.7810139,10.7051891 L27.2232302,23.2502722 C26.8736803,23.4991419 26.6652851,23.9010469 26.6633009,24.3301359 L26.6633009,33.6622912 C26.6633009,34.3985779 27.2601792,34.9954562 27.996466,34.9954562 L37.3286213,34.9954562 C39.5374815,34.9954562 41.3281164,36.7860912 41.3281164,38.9949514 L41.3281164,49.6602717 L35.9954562,49.6602717 L35.9954562,41.6612815 C35.9954562,40.9249947 35.3985779,40.3281164 34.6622912,40.3281164 L22.6638058,40.3281164 C21.9275191,40.3281164 21.3306407,40.9249947 21.3306407,41.6612815 L21.3306407,62.9919222 L15.9979806,62.9919222 L15.9979806,25.6633009 C15.995294,25.1250997 15.6692561,24.6413014 15.1714182,24.4367891 C14.6749514,24.2280198 14.1016342,24.3384754 13.7182683,24.7167537 L8.38560814,30.0494139 C7.87748178,30.5678065 7.87748178,31.3974524 8.38560814,31.915845 L12.7450578,36.4619378 L10.4920089,39.6082073 L4.51942951,33.6622912 C2.99639541,32.1551122 2.93172838,29.7154014 4.37278135,28.1296563 Z" id="Shape"></path>
                    </g>
                    <g id="noun_1076621_cc" transform="translate(48.679276, 0.414062)">
                        <g id="Group">
                            <path d="M14.4832973,28.3930182 C14.667635,27.8136711 15.2867237,27.4934528 15.8660708,27.6777905 C16.4454178,27.8621282 16.7656361,28.481217 16.5812985,29.060564 L13.6950031,38.1317781 C13.4284202,38.96961 12.3356505,39.1722385 11.7864058,38.4856825 L8.95550414,34.9470555 L4.31085212,36.3761792 C3.44880733,36.6414237 2.65109221,35.8142644 2.94739448,34.9623953 L6.24601779,25.4788533 C6.44574735,24.9046308 7.07315946,24.6010443 7.64738195,24.8007739 C8.22160444,25.0005035 8.52519095,25.6279156 8.32546138,26.2021381 L5.74093607,33.6326483 L9.02364331,32.6225846 C9.45550556,32.4897039 9.92471163,32.6342184 10.2069758,32.9870487 L12.2206623,35.5041567 L14.4832973,28.3930182 Z" id="Shape"></path>
                            <path d="M20.8048502,26.4316878 C20.501116,25.9050295 20.6818318,25.2318635 21.20849,24.9281293 C21.7351483,24.6243952 22.4083144,24.8051109 22.7120485,25.3317692 L27.2064228,33.1247667 C27.6502349,33.8943125 27.0466891,34.8455181 26.1614054,34.7717444 L21.8764419,34.4146641 L19.3473134,38.3890089 C18.915922,39.0669098 17.9271172,39.0691881 17.4926064,38.3932824 L13.7816552,32.6206916 C13.4528927,32.1092832 13.6009564,31.4281901 14.1123648,31.0994276 C14.6237732,30.770665 15.3048663,30.9187287 15.6336289,31.4301371 L18.4138858,35.7549813 L20.3761685,32.6713944 C20.5957848,32.3262829 20.988656,32.1314088 21.3963068,32.1653798 L24.2486669,32.4030764 L20.8048502,26.4316878 Z" id="Shape"></path>
                            <path d="M26.7351526,22.5831052 C26.7351526,24.8773011 24.8917047,26.720749 22.5418724,26.7763854 C21.1426689,26.7763854 19.0313455,27.6504279 18.042473,28.6393004 C16.4168248,30.2649486 13.7406495,30.2649486 12.1150013,28.6393004 C11.1261288,27.6504279 9.01480542,26.7763854 7.61560192,26.7763854 C5.31709089,26.7763854 3.42232168,24.8816162 3.42232168,22.5831052 C3.42232168,21.1839017 2.54827921,19.0725783 1.55940671,18.0837058 C-0.0662415326,16.4580576 -0.0662415326,13.7818823 1.55940671,12.1562341 C2.54827921,11.1673616 3.42232168,9.05603821 3.42232168,7.65683471 C3.42232168,5.35832368 5.31709089,3.46355447 7.61560192,3.46355447 C9.01480542,3.46355447 11.1261288,2.589512 12.1150013,1.6006395 C13.7406495,-0.0250087412 16.4168248,-0.0250087412 18.042473,1.6006395 C19.0313455,2.589512 21.1426689,3.46355447 22.5418724,3.46355447 C24.8403834,3.46355447 26.7351526,5.35832368 26.7351526,7.65683471 C26.7351526,9.05603821 27.6091951,11.1673616 28.5980676,12.1562341 C30.2237158,13.7818823 30.2237158,16.4580576 28.5980676,18.0837058 C27.6091951,19.0725783 26.7351526,21.1839017 26.7351526,22.5831052 Z M24.5335109,22.5831052 C24.5335109,20.6001488 25.6393989,17.9287828 27.0412718,16.52691 C27.8071254,15.7610563 27.8071254,14.4788836 27.0412718,13.7130299 C25.6393989,12.3111571 24.5335109,9.63979108 24.5335109,7.65683471 C24.5335109,6.57425685 23.6244502,5.66519624 22.5418724,5.66519624 C20.558916,5.66519624 17.88755,4.55930817 16.4856772,3.15743533 C15.7198235,2.39158167 14.4376508,2.39158167 13.6717971,3.15743533 C12.2699243,4.55930817 9.59855829,5.66519624 7.61560192,5.66519624 C6.53302406,5.66519624 5.62396345,6.57425685 5.62396345,7.65683471 C5.62396345,9.63979108 4.51807537,12.3111571 3.11620253,13.7130299 C2.35034888,14.4788836 2.35034888,15.7610563 3.11620253,16.52691 C4.51807537,17.9287828 5.62396345,20.6001488 5.62396345,22.5831052 C5.62396345,23.665683 6.53302406,24.5747436 7.61560192,24.5747436 C9.59855829,24.5747436 12.2699243,25.6806317 13.6717971,27.0825046 C14.4376508,27.8483582 15.7198235,27.8483582 16.4856772,27.0825046 C17.88755,25.6806317 20.558916,24.5747436 22.5156698,24.5750555 C23.6555945,24.5479145 24.5335109,23.6699982 24.5335109,22.5831052 Z" id="Shape"></path>
                            <path d="M19.4499518,10.5114348 C19.877357,10.0790597 20.5743466,10.0750309 21.0067216,10.5024361 C21.4390967,10.9298413 21.4431255,11.6268309 21.0157203,12.0592059 L13.9236802,19.2337116 C13.4848617,19.6776327 12.7651194,19.6682553 12.3380153,19.2130523 L9.20432316,15.8731962 C8.78832777,15.4298327 8.81051401,14.7331847 9.25387753,14.3171893 C9.69724104,13.9011939 10.3938891,13.9233801 10.8098845,14.3667437 L13.1614699,16.8730386 L19.4499518,10.5114348 Z" id="Shape"></path>
                        </g>
                    </g>
                </g>
            </g>
        </g>
    </g>
</svg>