<?xml version="1.0" encoding="UTF-8"?>
<svg width="47px" height="27px" viewBox="0 0 47 27" version="1.1" xmlns="http://www.w3.org/2000/svg" xmlns:xlink="http://www.w3.org/1999/xlink">
    <!-- Generator: sketchtool 50.2 (55047) - http://www.bohemiancoding.com/sketch -->
    <title>B0E5B6D0-0FFC-44A2-87EA-BDAC90A57B7A</title>
    <desc>Created with sketchtool.</desc>
    <defs></defs>
    <g id="Designs_V2" stroke="none" stroke-width="1" fill="none" fill-rule="evenodd">
        <g id="Hogar1" transform="translate(-990.000000, -969.000000)" fill="#939393" fill-rule="nonzero">
            <g id="tab" transform="translate(0.000000, 720.000000)">
                <g id="Group-11" transform="translate(185.000000, 239.000000)">
                    <g id="Group-10" transform="translate(805.000000, 3.000000)">
                        <path d="M44.9599159,26.2542668 L37.4051082,31.2383413 L27.7517428,31.2383413 L27.7517428,28.6676082 L37.8248197,28.6676082 C38.0871394,28.6676082 38.3494591,28.5626803 38.6117788,28.4052885 L46.4813702,22.6867187 C47.0584736,22.2670072 47.2158654,21.4275841 46.7961538,20.8504808 C46.3764423,20.2733774 45.5370192,20.1159856 44.9599159,20.5356971 L37.4051082,26.0444111 L27.7517428,26.0444111 L27.7517428,23.4736779 L37.8248197,23.4736779 C38.1396034,23.4736779 38.4019231,23.36875 38.6117788,23.2113582 L46.4813702,16.968149 C47.0584736,16.4959736 47.1634014,15.7090144 46.691226,15.1319111 C46.2190505,14.5548077 45.4320913,14.4498798 44.854988,14.9220553 L37.3526442,20.8504808 L27.7517428,20.8504808 L27.7517428,18.2797476 L37.8248197,18.2797476 C38.1396034,18.2797476 38.454387,18.1748197 38.7167067,17.9125 L46.5862981,10.620012 C47.0060096,10.2527644 47.1109375,9.67566106 46.9010817,9.20348558 C46.691226,8.7313101 46.2190505,8.3640625 45.6944111,8.3640625 L36.1459736,8.3640625 C36.1459736,8.3640625 36.1459736,8.31159856 36.1459736,8.31159856 C35.9361178,7.78695913 35.4639423,7.47217548 34.9393029,7.47217548 L20.8789663,7.47217548 C20.5641827,7.47217548 20.249399,7.57710337 19.9870793,7.83942308 L19.409976,8.41652644 L9.49429087,8.41652644 C9.17950721,8.41652644 8.86472356,8.52145433 8.60240385,8.78377404 L0.7328125,16.076262 C0.313100962,16.4435096 0.208173077,17.020613 0.418028846,17.4927885 C0.627884615,17.9649639 1.1000601,18.2272837 1.62469952,18.2272837 L11.0682091,18.2272837 L11.0682091,20.7980168 L1.62469952,20.7980168 C0.890204327,20.7980168 0.313100962,21.3751202 0.313100962,22.1096154 C0.313100962,22.8441106 0.890204327,23.4212139 1.62469952,23.4212139 L11.0682091,23.4212139 L11.0682091,25.9919471 L1.62469952,25.9919471 C0.890204327,25.9919471 0.313100962,26.5690505 0.313100962,27.3035457 C0.313100962,28.0380409 0.890204327,28.6151442 1.62469952,28.6151442 L11.0682091,28.6151442 L11.0682091,31.1858774 L1.62469952,31.1858774 C0.890204327,31.1858774 0.313100962,31.7629808 0.313100962,32.497476 C0.313100962,33.2319712 0.890204327,33.8090745 1.62469952,33.8090745 L37.8248197,33.8090745 C38.0871394,33.8090745 38.3494591,33.7566106 38.5593149,33.5992187 L46.4289062,28.4052885 C47.0584736,27.9855769 47.2158654,27.1986178 46.7961538,26.5690505 C46.3764423,26.0444111 45.5894832,25.8870192 44.9599159,26.2542668 Z M37.3001803,15.6040865 L29.4305889,15.6040865 L34.4671274,10.9347957 L42.3367187,10.9347957 L37.3001803,15.6040865 Z M10.0189303,10.9872596 L16.5769231,10.9872596 L11.5403846,15.6565505 L4.98239183,15.6565505 L10.0189303,10.9872596 Z M13.6914062,17.1780048 L21.4036058,10.0429087 L31.5816106,10.0429087 L25.5482572,15.6565505 C25.2859375,15.9188702 25.1285457,16.2336538 25.1285457,16.6009014 L25.1285457,31.1858774 L13.6914062,31.1858774 L13.6914062,17.1780048 Z" id="Shape"></path>
                    </g>
                </g>
            </g>
        </g>
    </g>
</svg>