<?xml version="1.0" encoding="UTF-8"?>
<svg width="44px" height="30px" viewBox="0 0 44 30" version="1.1" xmlns="http://www.w3.org/2000/svg" xmlns:xlink="http://www.w3.org/1999/xlink">
    <!-- Generator: sketchtool 50.2 (55047) - http://www.bohemiancoding.com/sketch -->
    <title>DF04A230-6F8A-417A-9A0B-20A4520A7D2E</title>
    <desc>Created with sketchtool.</desc>
    <defs></defs>
    <g id="Designs_V2" stroke="none" stroke-width="1" fill="none" fill-rule="evenodd">
        <g id="Hogar1" transform="translate(-223.000000, -967.000000)" fill="#666768" fill-rule="nonzero">
            <g id="tab" transform="translate(0.000000, 720.000000)">
                <g id="Group-11" transform="translate(185.000000, 239.000000)">
                    <g id="Group-8" transform="translate(38.000000, 3.000000)">
                        <g id="Group-7" transform="translate(0.000000, 5.000000)">
                            <path d="M43.9420952,28.6174062 C43.9420952,29.2175944 43.4555465,29.7041432 42.8553582,29.7041432 C42.25517,29.7041432 41.7686213,29.2175944 41.7686213,28.6174062 C41.7686213,22.8155865 37.0653172,18.1122824 31.2634975,18.1122824 C25.4616778,18.1122824 20.7583737,22.8155865 20.7583737,28.6174062 C20.7583737,29.2175944 20.271825,29.7041432 19.6716367,29.7041432 C19.0714485,29.7041432 18.5848998,29.2175944 18.5848998,28.6174062 C18.5848998,21.6152101 24.2613013,15.9388085 31.2634975,15.9388085 C38.2656936,15.9388085 43.9420952,21.6152101 43.9420952,28.6174062 Z M31.2634975,15.2143172 C27.0621798,15.2143172 23.6563389,11.8084763 23.6563389,7.60715862 C23.6563389,3.4058409 27.0621798,0 31.2634975,0 C35.4648152,0 38.8706561,3.4058409 38.8706561,7.60715862 C38.8706561,11.8084763 35.4648152,15.2143172 31.2634975,15.2143172 Z M31.2634975,13.0408433 C34.2644387,13.0408433 36.6971822,10.6080998 36.6971822,7.60715862 C36.6971822,4.60621742 34.2644387,2.17347389 31.2634975,2.17347389 C28.2625563,2.17347389 25.8298128,4.60621742 25.8298128,7.60715862 C25.8298128,10.6080998 28.2625563,13.0408433 31.2634975,13.0408433 Z" id="Shape"></path>
                            <path d="M25.8298128,28.6174062 C25.8298128,29.2175944 25.343264,29.7041432 24.7430758,29.7041432 C24.1428876,29.7041432 23.6563389,29.2175944 23.6563389,28.6174062 C23.6563389,22.8155865 18.9530348,18.1122824 13.1512151,18.1122824 C7.34939537,18.1122824 2.64609126,22.8155865 2.64609126,28.6174062 C2.64609126,29.2175944 2.15954254,29.7041432 1.55935431,29.7041432 C0.959166091,29.7041432 0.472617369,29.2175944 0.472617369,28.6174062 C0.472617369,21.6152101 6.14901892,15.9388085 13.1512151,15.9388085 C20.1534112,15.9388085 25.8298128,21.6152101 25.8298128,28.6174062 Z M13.1512151,15.2143172 C8.94989735,15.2143172 5.54405645,11.8084763 5.54405645,7.60715862 C5.54405645,3.4058409 8.94989735,0 13.1512151,0 C17.3525328,0 20.7583737,3.4058409 20.7583737,7.60715862 C20.7583737,11.8084763 17.3525328,15.2143172 13.1512151,15.2143172 Z M13.1512151,13.0408433 C16.1521563,13.0408433 18.5848998,10.6080998 18.5848998,7.60715862 C18.5848998,4.60621742 16.1521563,2.17347389 13.1512151,2.17347389 C10.1502739,2.17347389 7.71753034,4.60621742 7.71753034,7.60715862 C7.71753034,10.6080998 10.1502739,13.0408433 13.1512151,13.0408433 Z" id="Shape"></path>
                        </g>
                    </g>
                </g>
            </g>
        </g>
    </g>
</svg>