
<svg width="25px" height="68px" viewBox="0 0 25 68" version="1.1" xmlns="http://www.w3.org/2000/svg" xmlns:xlink="http://www.w3.org/1999/xlink">
    <!-- Generator: Sketch 50.2 (55047) - http://www.bohemiancoding.com/sketch -->
    <desc>Created with Sketch.</desc>
    <defs></defs>
    <g id="Page-1" stroke="none" stroke-width="1" fill="none" fill-rule="evenodd">
        <g id="Hogar-4" transform="translate(-658.000000, -545.000000)" fill="#FFFFFF" fill-rule="nonzero">
            <g id="Hero" transform="translate(0.000000, -9.000000)">
                <g id="769731261">
                    <g id="Scroll" transform="translate(658.000000, 554.000000)">
                        <path d="M0,12.1386719 L0,24.2773437 C0,30.9536133 5.46240234,36.4160156 12.1386719,36.4160156 C18.8149414,36.4160156 24.2773438,30.9536133 24.2773438,24.2773437 L24.2773438,12.1386719 C24.2773438,5.46240234 18.8149414,0 12.1386719,0 C5.46240234,0 0,5.46240234 0,12.1386719 Z M12.1386719,2.69748264 C17.331326,2.69748264 21.5798611,6.9460178 21.5798611,12.1386719 L21.5798611,24.2773437 C21.5798611,29.4699978 17.331326,33.718533 12.1386719,33.718533 C6.9460178,33.718533 2.69748264,29.4699978 2.69748264,24.2773437 L2.69748264,12.1386719 C2.69748264,6.9460178 6.9460178,2.69748264 12.1386719,2.69748264 Z" id="Shape"></path>
                        <path d="M12.1386719,14.1617839 C12.8804796,14.1617839 13.4874132,13.5548503 13.4874132,12.8130425 L13.4874132,8.76681858 C13.4874132,8.02501085 12.8804796,7.41807726 12.1386719,7.41807726 C11.3968641,7.41807726 10.7899306,8.02501085 10.7899306,8.76681858 L10.7899306,12.8130425 C10.7899306,13.5548503 11.3968641,14.1617839 12.1386719,14.1617839 Z" id="Shape"></path>
                        <path d="M11.0949969,47.0786586 C11.3931897,47.3768515 11.7659308,47.5259479 12.1386719,47.5259479 C12.511413,47.5259479 12.884154,47.3768515 13.1823469,47.0786586 L16.9097577,43.3512478 C17.5061434,42.7548621 17.5061434,41.8602835 16.9097577,41.2638978 C16.3133719,40.6675121 15.4187934,40.6675121 14.8224076,41.2638978 L12.1386719,43.9476336 L9.45493612,41.2638978 C8.85855039,40.6675121 7.96397181,40.6675121 7.36758608,41.2638978 C6.77120036,41.8602835 6.77120036,42.7548621 7.36758608,43.3512478 L11.0949969,47.0786586 Z" id="Shape"></path>
                        <path d="M11.0949969,57.568893 C11.3931897,57.8670859 11.7659308,58.0161823 12.1386719,58.0161823 C12.511413,58.0161823 12.884154,57.8670859 13.1823469,57.568893 L16.9097577,53.8414822 C17.5061434,53.2450965 17.5061434,52.3505179 16.9097577,51.7541322 C16.3133719,51.1577465 15.4187934,51.1577465 14.8224076,51.7541322 L12.1386719,54.4378679 L9.45493612,51.7541322 C8.85855039,51.1577465 7.96397181,51.1577465 7.36758608,51.7541322 C6.77120036,52.3505179 6.77120036,53.2450965 7.36758608,53.8414822 L11.0949969,57.568893 Z" id="Shape-Copy"></path>
                        <path d="M11.0949969,67.252975 C11.3931897,67.5511679 11.7659308,67.7002643 12.1386719,67.7002643 C12.511413,67.7002643 12.884154,67.5511679 13.1823469,67.252975 L16.9097577,63.5255642 C17.5061434,62.9291785 17.5061434,62.0345999 16.9097577,61.4382142 C16.3133719,60.8418285 15.4187934,60.8418285 14.8224076,61.4382142 L12.1386719,64.12195 L9.45493612,61.4382142 C8.85855039,60.8418285 7.96397181,60.8418285 7.36758608,61.4382142 C6.77120036,62.0345999 6.77120036,62.9291785 7.36758608,63.5255642 L11.0949969,67.252975 Z" id="Shape-Copy-2"></path>
                    </g>
                </g>
            </g>
        </g>
    </g>
</svg>