<?xml version="1.0" encoding="UTF-8"?>
<svg width="64px" height="77px" viewBox="0 0 64 77" version="1.1" xmlns="http://www.w3.org/2000/svg" xmlns:xlink="http://www.w3.org/1999/xlink">
    <!-- Generator: sketchtool 50.2 (55047) - http://www.bohemiancoding.com/sketch -->
    <title>1780F4ED-F263-4910-848A-400D214C8BB4</title>
    <desc>Created with sketchtool.</desc>
    <defs>
        <linearGradient x1="0%" y1="-3.24142267%" x2="107.192732%" y2="107.646343%" id="linearGradient-1">
            <stop stop-color="#F5B156" offset="0%"></stop>
            <stop stop-color="#E7792B" offset="100%"></stop>
        </linearGradient>
    </defs>
    <g id="Designs_V2" stroke="none" stroke-width="1" fill="none" fill-rule="evenodd">
        <g id="Hogar1" transform="translate(-1146.000000, -1785.000000)" fill="url(#linearGradient-1)" fill-rule="nonzero">
            <g id="items" transform="translate(91.000000, 1611.000000)">
                <g id="security" transform="translate(1054.500000, 173.935616)">
                    <path d="M4.21582133,51.0510063 C1.12486338,42.6679297 0.574282242,35.3016325 0.873824285,20.5813079 C0.934848614,18.9641632 0.947308914,17.6932126 0.947308914,14.9346828 C0.947308914,13.0769144 2.45332771,11.5708956 4.31109605,11.5708956 C15.1684533,11.5708956 23.3520317,8.474778 30.2144581,1.80556089 C31.5207883,0.532245281 33.6039748,0.532245281 34.9092907,1.8045732 C41.7682996,8.47762361 49.9488963,11.5708956 60.813667,11.5708956 C62.6714353,11.5708956 64.1774541,13.0769144 64.1774541,14.9346828 C64.1774541,16.4238609 64.1918245,17.3981732 64.2516831,20.6067679 C64.5561858,35.2885739 64.0061698,42.6684753 60.915524,51.053642 C56.6565422,62.6085964 48.0130122,71.0303875 33.6694313,76.000343 C32.9549071,76.2484317 32.1776256,76.2484661 31.463084,76.0004461 C17.1190389,71.0267371 8.47584505,62.60474 4.21582133,51.0510063 Z M32.4461927,73.1661036 C32.5240721,73.1931439 32.6081462,73.1931439 32.6863357,73.1659961 C46.1848633,68.4888457 54.1537301,60.7244102 58.1006443,50.0161198 C61.0186464,42.0993492 61.5491632,34.9810806 61.2522666,20.6658516 C61.1919593,17.4333811 61.1774541,16.4499294 61.1774541,14.9346828 C61.1774541,14.7337687 61.0145811,14.5708956 60.813667,14.5708956 C49.192029,14.5708956 40.2562168,11.1920592 32.816305,3.95385417 C32.6750278,3.81614752 32.4497352,3.81614752 32.3068674,3.95540233 C24.8634467,11.1892585 15.9251907,14.5708956 4.31109605,14.5708956 C4.11018196,14.5708956 3.94730891,14.7337687 3.94730891,14.9346828 C3.94730891,17.7302386 3.93458957,19.0276114 3.87244744,20.6683653 C3.58117817,34.9929878 4.1122501,42.0982688 7.03058307,50.0131642 C10.9785841,60.7206521 18.9475089,68.485589 32.4461927,73.1661036 Z" id="Shape"></path>
                    <path d="M41.7341575,29.3707646 C42.270691,28.7395567 43.2173323,28.6628079 43.8485402,29.1993413 C44.4797481,29.7358747 44.5564969,30.6825161 44.0199635,31.313724 L30.1201473,47.6662449 C29.566301,48.3178207 28.5806349,48.3752406 27.9548766,47.7923827 L21.2275812,41.5262931 C20.6213838,40.961655 20.5876933,40.0125053 21.1523315,39.4063078 C21.7169696,38.8001104 22.6661193,38.7664199 23.2723167,39.3310581 L28.8509763,44.5272594 L41.7341575,29.3707646 Z" id="Path-3"></path>
                </g>
            </g>
        </g>
    </g>
</svg>