<?xml version="1.0" encoding="UTF-8"?>
<svg width="254px" height="163px" viewBox="0 0 254 163" version="1.1" xmlns="http://www.w3.org/2000/svg" xmlns:xlink="http://www.w3.org/1999/xlink">
    <!-- Generator: sketchtool 50.2 (55047) - http://www.bohemiancoding.com/sketch -->
    <title>ECE220A3-AE75-4118-B5B5-7882755ACAAA</title>
    <desc>Created with sketchtool.</desc>
    <defs></defs>
    <g id="Designs_V2" stroke="none" stroke-width="1" fill="none" fill-rule="evenodd">
        <g id="Hogar1" transform="translate(-944.000000, -2217.000000)">
            <g id="footer" transform="translate(0.000000, 2155.000000)">
                <g id="Group" transform="translate(944.355469, 62.867553)">
                    <path d="M2.23281206,0 L5.52687722,0 L3.71363034,8.71365861 L3.26535542,10.8643709 C3.23009784,11.0456956 3.22002425,11.2169467 3.22002425,11.3781242 C3.22002425,12.0127606 3.4517169,12.5416242 3.91510222,12.9496048 C4.37848753,13.3626221 5.05341831,13.5691308 5.93485777,13.5691308 C6.73067168,13.5691308 7.38545527,13.4230637 7.90424535,13.1208559 C8.42303543,12.8186481 8.82597918,12.3754099 9.10803981,11.7861047 C9.39513723,11.1917627 9.68223465,10.1894401 9.97436887,8.77410017 L11.8127997,0 L15.1119017,0 L13.2835444,8.78417377 C12.8957111,10.6326782 12.4524729,12.0429813 11.9487932,13.0201199 C11.4451136,14.0022953 10.6795204,14.7981092 9.66208746,15.4125985 C8.6345809,16.0220509 7.3451609,16.3292955 5.77871707,16.3292955 C3.91510222,16.3292955 2.4846519,15.870947 1.49240292,14.9542499 C0.495117134,14.0375529 0.00151103907,12.8639792 0.00151103907,11.4234553 C0.00151103907,11.1212475 0.0266950235,10.7988925 0.0770629923,10.4463167 C0.102246977,10.2146241 0.233203696,9.54976689 0.454822759,8.45678197 L2.23281206,0 Z" id="Fill-29" fill="#FFFFFF"></path>
                    <path d="M17.5199943,4.42432238 L20.501778,4.42432238 L20.1945334,5.93536145 C20.9399794,5.29065145 21.6300205,4.83733973 22.2797673,4.5603159 C22.9295141,4.28832887 23.6094817,4.15233535 24.3247069,4.15233535 C25.2816983,4.15233535 26.032181,4.42432238 26.5862287,4.97333324 C27.1352395,5.5223441 27.4122634,6.24764286 27.4122634,7.15426629 C27.4122634,7.56224684 27.2863434,8.33287677 27.049614,9.47119286 L25.6796052,16.0542864 L22.536644,16.0542864 L23.9217631,9.45104567 C24.123235,8.46383348 24.2239709,7.87956505 24.2239709,7.68816676 C24.2239709,7.28522301 24.1081246,6.97294161 23.8713952,6.73621215 C23.6346657,6.50955629 23.2972003,6.39370996 22.8741094,6.39370996 C22.4207977,6.39370996 21.9070444,6.59014504 21.3479599,6.97294161 C20.7788019,7.36077497 20.3406005,7.87452825 20.0182455,8.50916466 C19.7815161,8.96247638 19.5196026,9.88421021 19.2325052,11.2794029 L18.2352194,16.0542864 L15.097295,16.0542864 L17.5199943,4.42432238 Z" id="Fill-30" fill="#FFFFFF"></path>
                    <path d="M39.2069306,11.0940488 C39.2069306,12.0006723 39.4285497,12.7058238 39.866751,13.2044667 C40.3099891,13.7031096 40.8287792,13.9499127 41.4281581,13.9499127 C41.9469481,13.9499127 42.4506278,13.7635512 42.9291235,13.3908282 C43.412656,13.0130684 43.810563,12.3885056 44.132918,11.512103 C44.4451994,10.6457739 44.6063769,9.8348496 44.6063769,9.08940366 C44.6063769,8.22307459 44.3948314,7.55318061 43.9767773,7.08979529 C43.5637599,6.62640998 43.0348963,6.39471732 42.3952231,6.39471732 C41.7958442,6.39471732 41.2468334,6.60626279 40.7582641,7.03942733 C40.264658,7.46251826 39.8818614,8.09211787 39.6098744,8.92318936 C39.3378873,9.74922405 39.2069306,10.469486 39.2069306,11.0940488 Z M37.313095,4.42532974 L40.289842,4.42532974 L40.0380021,5.6190506 C40.6726385,5.09018693 41.2669806,4.71746396 41.826065,4.4908081 C42.3801127,4.26415224 42.9744547,4.15334271 43.6090911,4.15334271 C44.8229592,4.15334271 45.8101713,4.57139685 46.5505805,5.41254193 C47.2909896,6.24865021 47.6637126,7.50281264 47.6637126,9.16495561 C47.6637126,11.2602631 47.0240394,13.0332156 45.744693,14.4787763 C44.6517081,15.7127916 43.3522145,16.3272808 41.8562858,16.3272808 C40.3150259,16.3272808 39.1515259,15.7077548 38.3607487,14.4535923 L37.1015495,20.487675 L33.9585883,20.487675 L37.313095,4.42532974 Z" id="Fill-31" fill="#FFFFFF"></path>
                    <g transform="translate(0.000000, 32.500000)" fill="#FEFEFE">
                        <path d="M225.551234,49.481971 C225.396739,48.8448098 227.438869,48.4756814 227.436277,48.3714752 C227.430056,47.781492 227.525967,47.8151905 227.055743,47.7394984 L215.883388,47.7322403 C215.575435,47.7322403 215.85954,49.3279947 216.112538,49.3399188 C217.172745,49.3855414 218.341306,49.2714849 218.793385,50.1191322 L223.415784,58.8195712 C225.52583,62.7892567 227.459088,66.7890116 227.252231,67.7885615 C226.952573,69.227229 224.37023,75.7243033 220.825146,76.5812825 C219.430546,76.916194 216.399753,75.7564465 216.585354,76.3593908 C216.76266,76.9369315 216.567727,79.6017067 215.374799,82.103692 C215.295478,82.2721846 218.759168,82.9394153 221.629763,81.1694654 C222.907714,80.3829938 223.863197,78.8038294 224.686478,77.0100314 L235.69708,53.0742331 C236.105609,52.219846 236.532285,50.8045083 237.455624,49.9330127 C238.438065,49.0065627 239.911987,48.6457293 239.913542,48.6306946 L240.168614,47.7099474 L231.860115,47.7234268 C231.455732,47.7711232 231.77872,48.6856491 231.852856,48.66543 C232.135406,48.589738 233.002235,48.7530462 233.442908,48.9894542 C234.666423,50.2808851 234.707899,50.4996663 234.002822,52.7875365 L230.501805,60.670916 C229.720518,59.0103567 226.246978,52.3053884 225.551234,49.481971" id="Fill-1"></path>
                        <path d="M210.362586,49.2591979 L215.645476,49.2633454 C215.95291,49.2633454 216.167026,49.2690482 216.28834,49.1321804 C216.430393,48.9678353 216.412247,48.158034 216.330334,47.9444373 C216.277972,47.8054957 216.183097,47.700771 216.072151,47.700771 L214.253987,47.7090661 L211.079586,47.7090661 C209.959759,47.7090661 210.346514,47.2108464 210.339774,45.6902656 L210.324739,40.8392343 C210.324739,40.0398017 209.889769,39.9350771 209.157215,40.664002 L201.414851,48.3648911 C201.012543,48.7651258 201.117267,49.2483107 201.522168,49.2493476 L204.421796,49.2550504 C204.658722,49.2550504 204.658722,49.7817842 204.658722,50.0964765 L204.658722,61.8883657 C204.658722,68.5150497 213.433298,69.4632741 216.791744,65.2193346 C217.253673,64.6381648 218.036516,63.1709831 216.97579,63.8900577 C213.286062,66.3977459 210.375546,65.1218681 210.373991,60.6793665 L210.362586,49.2591979 Z" id="Fill-3"></path>
                        <path d="M181.227261,48.610631 C181.253183,49.3991764 184.822116,47.6058968 184.822116,52.9898831 L184.822116,62.8438483 C184.822116,66.2982056 181.420639,65.6776344 181.44345,66.2059235 C181.454338,66.5045442 181.41027,67.014688 181.598464,67.014688 L193.762073,67.0203908 C193.851245,67.0203908 193.968412,66.0446891 193.770368,66.0270622 C190.700174,65.7502159 190.760313,64.0813616 190.760313,62.1372163 L190.760313,54.6125964 C190.760313,54.1283746 191.578928,53.0173603 193.316734,52.4688522 C197.828188,51.0472931 198.051117,54.1465199 198.977049,54.1200796 C199.723082,54.0972682 200.280404,50.0829971 200.218709,49.5147882 C199.932531,46.7758763 197.041717,46.1890037 195.158229,47.14656 C192.712753,48.3877024 191.355481,51.6274261 190.673215,52.8203536 C190.640554,52.8753081 190.935027,46.8147592 190.805417,46.8204621 L181.191489,47.3632674 L181.227261,48.610631 Z" id="Fill-5"></path>
                        <path d="M165.882719,54.3716779 C165.793547,54.3716779 166.159565,48.6387823 170.121992,48.2701723 C173.363271,47.9689594 175.737721,54.336424 174.153891,54.3416084 L165.882719,54.3716779 Z M180.113344,55.5552735 C180.733915,55.5578657 180.542611,55.0803836 180.504247,54.7330297 C178.60054,47.2141126 171.573102,45.2461191 166.303173,47.5313971 C162.458949,49.1981777 159.823207,52.8930906 159.803506,57.6855383 C159.810246,59.2107851 160.276322,60.8386827 160.799427,62.0570138 C161.328753,63.2675683 162.066491,64.310667 163.020419,65.1712753 C163.975901,66.0324021 165.091063,66.6887455 166.366422,67.1413425 C171.927196,69.1357764 177.86643,66.7888042 180.460698,61.5691629 C180.798201,60.8884529 180.557646,60.7204787 180.360639,60.9273358 C173.053245,68.699251 167.995357,64.2370487 166.560837,60.0817622 C165.773847,57.8073714 165.845391,55.5578657 165.889459,55.5578657 L180.113344,55.5552735 Z" id="Fill-7"></path>
                        <path d="M140.727293,53.0356094 C140.727293,52.6882554 140.740773,52.3611206 140.793135,52.0609446 C140.982365,51.0064402 144.061891,49.780851 144.921981,49.6859767 C153.900822,48.6931665 153.52962,66.3081596 144.418577,66.3765936 C141.325572,66.4009602 140.727293,64.9275573 140.727293,62.2456737 L140.727293,53.0356094 Z M134.957589,66.3838517 C134.957589,66.6622533 134.811389,67.252755 135.316348,67.2563841 C139.900384,67.2937117 140.631901,67.854144 141.097977,67.8914716 C144.934942,68.1994242 149.002094,67.6358813 151.110066,66.7617935 C154.027839,65.5491653 155.952284,63.5407336 156.971535,60.5534896 C158.724894,55.4007269 156.25246,48.4018039 150.534081,47.0559369 C143.716093,45.4524059 140.531842,52.0676843 140.558801,49.1188047 L140.702408,34.6937651 L131.914353,35.2827115 L131.955828,36.0437796 C131.968789,36.2755217 135.048315,37.1760498 135.046242,37.6690851 L134.957589,66.3838517 Z" id="Fill-9"></path>
                        <path d="M128.641657,38.2985734 C128.629733,37.6432668 128.483533,37.0610601 128.183875,36.5322526 C127.881626,36.0117401 127.476725,35.5964707 126.958805,35.2854074 C126.449179,34.9733073 125.866973,34.8172572 125.21374,34.8079253 C124.526809,34.8172572 123.914532,34.9831576 123.394538,35.3056265 C122.876618,35.6286139 122.459793,36.0537336 122.168431,36.5732092 C121.877068,37.0921664 121.731905,37.6432668 121.722573,38.2348054 C121.731905,38.8491553 121.877068,39.398182 122.18865,39.9078072 C122.491418,40.4158772 122.8958,40.8212963 123.425645,41.1339149 C123.94512,41.4351278 124.538733,41.5906594 125.21374,41.6010282 C125.898079,41.5906594 126.501542,41.4242406 127.01998,41.1028085 C127.529087,40.7793028 127.925174,40.375439 128.204613,39.875664 C128.495457,39.3779628 128.641657,38.8491553 128.641657,38.2985734" id="Fill-11"></path>
                        <path d="M122.479649,61.8895581 C122.457357,62.5920426 122.440767,64.5413722 121.734135,65.0442578 C121.110453,65.4885598 119.209856,66.1770465 119.211412,66.269847 C119.238889,66.8090233 119.569653,66.9059714 120.04195,66.9023423 L129.08093,66.8546459 C129.604035,66.8510168 130.256231,67.0070669 130.761708,66.8292424 C131.272889,66.6503811 131.020409,65.9245668 130.467235,65.9250853 C127.897853,65.9333803 128.50961,63.5029394 128.450508,62.0647904 C128.044571,52.373615 128.258168,48.6984027 128.259205,46.9839258 C128.259205,46.5919861 121.737245,47.2498849 119.022181,47.6438983 C118.72719,47.6864103 118.884795,48.7870557 119.054325,48.7792792 C121.67244,48.6574461 122.837891,50.5461184 122.766865,52.7349668 L122.479649,61.8895581 Z" id="Fill-13"></path>
                        <path d="M98.5876592,61.888573 C98.589733,62.3992352 98.5783273,62.8632379 98.5461841,63.2759151 C98.3460668,65.8427053 94.6433773,65.7561261 94.6915921,65.9183974 L94.9689568,66.8785459 L116.008756,66.8671403 C117.183538,66.8666219 117.319369,66.9231317 117.584292,66.6680598 C117.753821,66.5000857 117.858546,66.188504 117.898984,65.7343516 C117.995414,63.5677961 118.336028,61.3675421 118.506594,59.1994313 C118.520074,59.0226437 118.342768,58.9920558 118.106359,58.9868714 C117.589994,58.9785764 117.362918,59.7961543 117.169541,60.1497295 C116.056971,62.1991179 115.193771,63.7430284 113.004922,64.7814612 C111.504042,65.4932776 107.996286,65.7696055 106.488666,64.8016803 C105.922012,64.4455129 105.523851,63.9084104 105.290035,63.2111103 C105.054146,62.5132917 104.949421,61.6449068 104.949421,60.6230641 L104.949421,41.8545447 C104.949421,41.3920974 104.992451,41.090366 105.037556,40.7005001 C105.081104,40.319966 105.174942,39.9777965 105.33825,39.6859155 C105.499485,39.3945529 105.820398,39.0824528 106.172418,38.9082573 C106.393273,38.7988668 108.394965,37.8900437 109.257129,37.442631 C109.620554,37.2518456 109.555231,37.1113487 109.375333,37.1714876 L95.2986838,37.1398628 C95.1628529,37.1383075 94.6464879,37.1398628 94.4935485,37.163711 C94.3395722,37.1865223 94.4593315,37.709627 94.5982731,37.7593971 C96.1976566,38.3213847 98.3035548,38.6874024 98.4238326,40.7424936 C98.4466439,41.1473943 98.4606417,41.6036204 98.4653077,42.1049506 L98.5876592,61.888573 Z" id="Fill-15"></path>
                        <polygon id="Fill-17" points="94.7415696 78.3205408 211.820072 78.3205408 211.820072 76.5324456 94.7415696 76.5324456"></polygon>
                        <polygon id="Fill-19" points="228.773019 78.3205408 253.148972 78.3205408 253.148972 76.5324456 228.773019 76.5324456"></polygon>
                        <path d="M218.927505,97.1813941 C220.465712,97.4841624 221.750404,98.5039314 222.457554,99.7445553 C223.233657,101.101828 223.335271,103.230537 223.288093,104.731418 C223.222251,106.741923 223.1196,109.764421 221.877421,111.490303 C221.300399,112.295439 220.555921,113.539692 218.837296,113.732551 C214.210749,114.252545 212.834813,110.8407 212.337111,107.707774 C212.049896,105.917605 212.202836,102.797123 212.738901,101.215884 C213.598991,98.6853849 215.82413,96.5706733 218.927505,97.1813941 M218.041493,95.5286114 C216.756283,95.536388 215.57528,95.6872537 214.515591,95.9734319 C213.444496,96.2523519 212.507678,96.6007427 211.69995,97.0211966 C210.892741,97.4432057 210.221363,97.8615858 209.70085,98.2913715 C209.032064,98.7999599 208.431194,99.4179389 207.885796,100.140642 C207.34662,100.862828 206.922019,101.687145 206.599031,102.616706 C206.278118,103.537453 206.111699,104.561888 206.104959,105.672384 C206.111699,106.568764 206.28745,107.473958 206.616658,108.386929 C206.955717,109.298863 207.415054,110.158434 208.006592,110.959941 C208.589318,111.76041 209.257585,112.444231 210.015024,113.006218 C210.664628,113.499772 211.403922,113.933705 212.211131,114.308536 C213.02819,114.673517 213.872208,114.95814 214.73178,115.166553 C215.590833,115.371854 216.417224,115.483837 217.208362,115.483837 C218.015571,115.483837 218.832112,115.419551 219.667317,115.284238 C220.502003,115.149963 221.318026,114.935329 222.116421,114.650188 C222.92363,114.364528 223.69092,113.990733 224.402736,113.53036 C224.89629,113.245737 225.409544,112.847058 225.940425,112.356096 C226.479083,111.855803 226.972119,111.260117 227.441306,110.571112 C227.91153,109.879514 228.296211,109.109633 228.589647,108.24384 C228.885158,107.387379 229.032913,106.45056 229.042763,105.43442 C229.032913,104.19587 228.815168,103.061526 228.398862,102.03087 C227.982556,100.997622 227.399831,100.076356 226.669869,99.2748498 C225.940425,98.4666038 225.105739,97.7910781 224.168402,97.2353118 C223.228991,96.679027 222.23981,96.2523519 221.186342,95.9651368 C220.144799,95.6711821 219.093923,95.5286114 218.041493,95.5286114" id="Fill-20"></path>
                        <path d="M144.31686,98.2455933 C146.274484,96.4652747 149.458735,96.5124526 151.061748,99.3695685 C152.477085,101.890736 152.566257,105.939743 149.607009,107.946101 C147.817358,109.160284 145.17332,108.434988 144.084599,106.918555 C143.503429,106.105643 143.115637,105.112833 142.91552,104.117949 C142.571795,102.410212 142.758433,99.6640417 144.31686,98.2455933 M140.627131,121.171473 C139.95005,117.657495 156.43692,117.097581 156.063645,123.245746 C155.938182,125.331944 151.400807,126.123081 148.401638,125.765359 C145.185244,125.381714 141.2617,124.453709 140.627131,121.171473 M138.241276,100.394003 C137.204398,102.954054 137.395184,104.532182 138.642029,106.67126 C139.48864,108.122888 141.634976,108.755902 142.509064,109.068002 C142.892708,109.20487 143.244728,109.468755 142.791094,109.702053 C142.274211,109.96542 140.574769,110.449123 139.142322,111.138646 C137.458952,111.948966 136.497766,115.364959 139.461162,116.857026 C140.915383,117.590617 142.904114,117.454786 142.407968,118.212225 C142.270063,118.421155 141.296435,118.453817 140.06618,118.890343 C136.949327,119.994099 136.31061,121.782194 136.286243,123.206345 C136.244768,125.640933 139.222162,127.673213 142.869897,128.644249 C144.654882,129.119657 146.716713,129.226974 148.437411,129.228011 C149.626709,129.229566 151.520047,128.955312 152.949902,128.448798 C155.179188,127.659215 156.951212,126.305053 158.265454,124.552212 C159.743523,122.5837 160.18938,119.73799 157.6988,117.213193 C154.651417,114.123817 148.206187,114.286606 144.227688,113.568569 C140.586693,112.908596 142.335905,109.881432 145.277008,110.070663 C146.622875,110.155687 148.93563,110.258337 150.587376,109.83581 C155.756729,108.515865 159.85084,104.346062 154.877457,99.191744 C154.835982,99.1487136 154.867606,99.0491734 154.91945,98.9496332 C154.96922,98.8578695 155.061503,98.7904725 155.192149,98.7904725 L159.240119,98.7889171 L159.333956,95.9623891 L158.952385,95.5440091 L146.185313,95.4983864 C145.183689,95.4937205 144.061788,95.6471784 143.202735,95.9732763 C141.266884,96.7094593 139.088405,98.3062507 138.241276,100.394003" id="Fill-21"></path>
                        <path d="M95.4324929,94.4058805 C95.9747798,98.6575966 98.4124788,100.617813 100.784854,102.135284 C102.162865,103.015074 103.882008,104.061284 105.244465,104.741475 C108.603429,106.417069 111.26976,109.720561 107.580549,112.558495 C106.300006,113.544047 104.325791,113.803266 102.547546,113.476131 C101.614356,113.304528 100.771375,112.79594 100.034155,112.521685 C96.4377456,111.1753 96.5948325,106.664365 96.1769709,106.19777 C95.9794458,105.977952 95.0161866,106.073344 94.8896875,106.073344 C94.7984423,106.073344 94.9560477,114.781042 94.8933166,115.2663 C94.86895,115.461752 95.6678641,115.394873 95.8809424,115.339918 C96.5751319,115.157946 96.4138974,113.748312 96.7088891,113.782528 C99.3995861,114.096702 100.921722,115.769704 105.267276,115.370506 C106.104554,115.295333 107.079738,115.102474 107.838214,114.855178 C109.300211,114.377178 111.18318,113.293641 112.064008,112.059757 C114.107693,109.197456 114.196346,105.382266 112.500015,102.469677 C112.04327,101.68165 111.408701,101.114478 110.47603,100.305195 C107.665055,97.8680144 101.340102,96.2224898 99.8433697,93.2601309 C96.3568692,86.3680062 109.352573,84.9635557 111.11682,92.4902493 C111.135484,92.5623123 111.09038,93.2072501 111.179033,93.2093239 C111.428402,93.2186558 111.960838,93.1673303 112.131405,93.2430224 C112.428989,93.3747058 112.306637,92.5431301 112.306637,92.2553966 L112.317524,85.7961683 C112.317524,84.9200068 111.50876,85.1626361 111.124597,85.5670184 C110.756505,85.9594765 110.204886,86.2015874 109.834721,86.2793532 C109.14105,86.4239976 108.196973,86.3337893 107.68009,86.0978996 C105.590263,85.1398248 102.272774,85.3897123 99.8475172,86.4431798 C97.2615448,87.5650813 94.9213123,90.381759 95.4324929,94.4058805" id="Fill-22"></path>
                        <path d="M120.994945,102.715106 C120.910439,102.715106 121.260904,97.2492059 125.039285,96.8961491 C128.12918,96.6094525 130.393202,102.681926 128.884545,102.686591 L120.994945,102.715106 Z M134.566116,103.844265 C135.158173,103.845302 134.975682,103.390113 134.938873,103.059867 C133.124337,95.8898595 126.421443,94.0136297 121.397771,96.1926278 C117.730854,97.7831978 115.217982,101.304434 115.200355,105.87499 C115.206576,107.329729 115.65036,108.880898 116.148061,110.043237 C116.655612,111.197282 117.356023,112.192684 118.267957,113.012854 C119.177298,113.834061 120.242172,114.460335 121.456874,114.891676 C126.760502,116.792791 132.421334,114.556246 134.898435,109.577679 C135.219348,108.929631 134.987088,108.769952 134.802524,108.965922 C127.83367,116.377522 123.012708,112.122695 121.640919,108.159749 C120.892812,105.990083 120.960728,103.845302 121.004276,103.845302 L134.566116,103.844265 Z" id="Fill-23"></path>
                        <path d="M186.042054,114.597151 C182.851582,114.91962 179.903739,115.062191 177.647494,114.979241 L177.650086,111.321655 C177.650086,111.186343 177.62883,111.05103 177.613795,110.914162 C174.618256,114.623592 169.705531,116.067962 166.569495,114.430732 C165.195632,113.713732 163.606617,112.208186 163.609728,110.503559 L163.63565,100.593084 C163.639797,99.0683556 163.62891,98.3363201 163.339621,98.0190356 C162.984491,97.6379831 162.87199,97.4684537 161.004055,97.3212171 L161.02894,96.2641205 C163.24371,96.0951094 167.790418,95.476612 169.195905,95.4372107 L169.1845,105.35961 C169.179834,108.608665 169.400689,111.058807 170.653237,111.998736 C172.805276,113.61471 177.290289,111.045327 177.59565,108.634587 C177.742886,107.928474 177.882865,105.356499 177.882865,101.529903 C177.882865,99.3000977 177.540695,97.930901 177.242075,97.6068768 C176.945009,97.283371 176.441605,97.3621737 174.48398,97.1776095 L174.62707,96.0717797 C177.347318,95.8291504 180.347523,95.8338163 182.933495,95.4589851 L183.008669,108.18199 C183.020593,109.911502 182.838102,111.670565 183.813286,112.750991 C184.224926,113.207735 184.882825,113.507393 185.785427,113.693513 C186.284165,113.796682 186.126559,114.029461 186.042054,114.597151" id="Fill-24"></path>
                        <path d="M187.224768,97.2654331 C187.30046,98.0228721 190.656833,95.8625378 190.656833,101.218528 L190.656833,110.75832 C190.656833,114.102768 187.401037,113.441759 187.420738,113.952939 C187.434736,114.241191 187.352304,114.796439 187.537387,114.796439 L199.313204,114.802142 C199.39771,114.802142 199.513322,113.857547 199.322536,113.83992 C196.827291,113.621657 196.168355,111.956432 196.168355,110.074499 L196.168355,103.506917 C196.168355,103.038767 197.198493,101.242895 198.881863,100.713569 C203.250228,99.3376327 203.657721,102.482482 204.553583,102.454486 C204.988553,100.372436 205.861604,97.9233318 205.805094,97.3722314 C205.665634,96.0476204 204.576394,95.5385136 203.504782,95.5068888 C199.828532,95.3985351 197.781218,98.5029463 196.132064,101.388576 C196.102513,101.441457 196.43224,95.3819451 196.307815,95.3876479 L187.141299,96.3929006 L187.224768,97.2654331 Z" id="Fill-25"></path>
                        <path d="M230.89867,101.687353 C231.228397,105.837973 234.905683,106.251687 238.544605,107.695021 C242.843499,109.400684 242.401789,112.133893 240.241455,113.322155 C238.452841,114.30667 235.428269,114.219054 233.484124,111.716032 C232.500127,110.446894 232.092116,108.908167 231.471026,108.314037 C231.319124,108.169911 230.577756,108.232123 230.477698,108.232123 C230.409782,108.232123 230.454886,115.041816 230.406672,115.362211 C230.320611,115.942863 232.103003,114.132475 232.369999,114.136104 C234.596693,114.166692 237.011581,115.638021 239.320189,115.089513 C243.739361,114.036045 245.009017,111.783947 245.07434,108.593994 C245.124111,106.173921 243.272766,103.939969 240.348253,102.846582 C238.707913,102.235342 236.422116,101.490346 235.253037,100.543677 C232.611592,98.4025247 236.002699,96.4257178 239.261605,97.4833329 C243.077314,98.7198093 242.89949,101.238385 242.967405,101.240977 C243.161302,101.244087 243.648634,101.174098 243.778244,101.223868 C244.00843,101.310448 243.912001,97.9229689 243.884524,95.7501921 C243.880894,95.3546234 243.511766,95.4069857 243.238549,95.5702939 C243.153006,95.6216193 242.988661,95.8035913 242.922301,95.8424742 C242.329726,96.1815332 240.978674,96.1535375 240.364324,95.911945 C238.750943,95.2778944 236.136457,95.3665475 234.263856,96.0648845 C232.271496,96.8078072 230.684555,99.0059874 230.89867,101.687353" id="Fill-26"></path>
                        <path d="M5.00822194,6.13411536 C5.00822194,3.87113025 5.99481087,1.77871148 8.69483984,1.06430289 C11.354949,0.388777213 16.2785618,1.26234649 18.2641821,1.06430289 C19.5742769,0.388777213 19.2165541,-0.400804992 19.9319996,0.23324559 C20.0113207,0.829450144 19.1024976,2.0011217 19.5784244,2.55740647 C19.9361471,3.15361103 20.3674881,2.96956527 21.401255,3.0488864 C22.4728679,3.16916419 24.3630955,3.35476526 25.5928322,2.99756097 C26.9827665,2.83840027 27.6168171,0.297531994 28.0554162,1.01194058 C28.7309419,2.0840719 28.3099697,4.04325191 27.3171595,5.11382791 C26.3248677,6.18699611 24.4978896,6.3808922 23.0680355,7.0164981 C21.6786197,7.61114734 20.2777982,7.90562054 19.4047474,8.50026978 C18.5301412,9.13639412 18.6602693,10.1177987 18.104503,10.2759225 C17.550292,10.3956818 17.2314522,9.32251362 16.5569634,9.32251362 C15.9218759,9.32251362 15.3412245,10.4190116 14.309013,10.2608877 C13.2773199,10.060252 12.3482777,8.37014165 10.9972263,8.32970343 C9.60781046,8.32970343 9.08470577,10.2759225 7.61545038,9.95863796 C6.18559632,9.64135345 5.00822194,8.35821756 5.00822194,6.13411536 M28.3991411,35.6446855 C30.4324579,39.3743338 33.0189488,43.8997856 35.4359102,48.3671722 C37.5666934,52.3098988 39.6560015,56.1987078 39.8084225,59.6219589 C36.8704302,58.2719444 35.6702445,56.5875369 33.8826677,57.1443401 C31.9364487,51.4441061 29.5018603,44.3425322 26.9723977,39.2167284 C26.3378287,38.1041589 25.9479628,37.2829519 26.8210136,36.5675064 C27.4078863,36.0957272 27.7946416,36.063584 28.3991411,35.6446855 M49.7603726,31.0316175 C49.770223,31.0352466 49.647353,30.5302873 49.7945896,30.5489511 C49.9428631,30.5655411 48.9562741,30.5816127 49.5265568,30.7200358 L48.1075899,48.0338161 L46.346972,48.6388341 L43.6754571,46.3877731 L41.848479,44.8500838 L43.9792622,46.4888686 L31.20545,33.8783647 C36.6651284,31.0378388 43.147168,30.3607578 49.7603726,31.0316175 M68.5356317,40.1654713 C69.2795913,39.5609717 61.6901665,47.9223518 59.8844444,49.456412 L58.1279739,48.6808276 L56.1454642,32.3344541 C60.5278269,33.7757138 65.3218299,36.9926262 68.5356317,40.1654713 M73.6101101,46.4603545 C75.9441213,50.0225471 77.4403355,52.9652054 76.2894015,53.4774229 L69.6979714,56.4205996 L68.8824672,55.3116592 C69.9167525,52.6873222 72.3155686,48.8825003 73.6101101,46.4603545 M80.8879532,85.3588134 C80.3197443,76.4069316 80.7764888,68.8662401 79.4145503,60.4804934 C77.9888437,61.8382845 73.3892552,63.6305272 72.4508811,67.8713561 C70.0188849,78.8549993 77.0012179,80.0883651 77.9841778,85.493089 C79.1641444,85.302822 79.5415678,85.2966007 80.8879532,85.3588134 M33.1796648,119.060961 C43.4089796,100.395092 61.1121073,90.5934893 79.9806854,89.4518872 L80.0926681,87.9971481 C69.3024026,88.4772224 63.3527996,90.5338689 55.8649888,93.9000916 C47.0245714,98.2611983 35.9880474,107.961706 30.8985343,118.47668 C31.1406452,119.133024 32.8540852,120.146053 33.1796648,119.060961 M27.9335831,116.817158 C29.7107911,113.234746 30.8777968,112.160541 33.00858,109.427332 C34.1491452,107.967408 37.849761,103.632224 42.1922039,99.9191654 C46.917773,95.8763801 52.3447898,93.6362063 56.2475966,91.4525423 C58.1855206,90.3695238 42.5602954,94.0053347 33.0205041,104.615702 C29.2778948,108.776173 25.070246,113.914419 24.9141959,115.752803 C24.8312457,116.734208 27.2487256,118.198279 27.9335831,116.817158 M20.6619613,111.650397 C2.99616118,89.0832773 13.8201252,51.8204927 14.389371,54.3966148 C14.5951912,57.7151412 14.5822302,60.8843572 15.2468687,63.8601956 C16.4325381,69.1679714 18.8577945,73.9930808 20.3006095,79.6927963 C24.1137265,92.9798629 23.2396388,103.840118 21.5770057,110.588635 C21.5484916,110.60678 21.5199775,110.626481 21.4935371,110.647737 C21.2312071,110.849928 20.9413998,111.206095 20.6619613,111.650397 M33.9521385,58.2361721 L38.9555908,60.6183981 C38.8752328,61.4520476 38.4392258,63.7145143 38.2795467,64.7073245 L34.0309412,62.2452589 C33.8717805,60.8563615 33.8717805,59.5058286 33.9521385,58.2361721 M75.1477994,84.3857038 C75.6257999,85.4137679 72.4591761,85.480128 71.1034588,84.5137582 C69.9914077,82.8065394 67.3380382,77.732061 66.54379,75.7459222 C66.4229938,75.070915 66.6210374,73.9194625 67.6537674,73.0458932 C68.5273367,72.1718055 68.6745733,71.262464 70.0256246,70.7061792 C70.3672758,70.5553135 69.684492,72.7115002 70.7260354,75.8770872 C71.8733403,79.3552927 74.5153042,83.5090239 75.1477994,84.3857038 M50.2046746,47.561 L52.774057,22.2461546 L56.1293926,48.0042651 C53.9457286,47.4096158 52.6657033,47.3219997 50.2046746,47.561 M61.9338327,50.5472071 L77.5725374,34.3190376 L66.971502,54.2659682 C65.8641169,53.0688932 63.6799344,51.5394989 61.9338327,50.5472071 M70.3869764,58.0614582 C75.5117434,55.8783127 83.4817022,53.150288 88.5644756,51.005507 C84.3158701,54.619025 76.8964933,59.56182 72.6484062,63.2147394 C72.1704057,61.5464035 71.7426938,59.2896396 70.3869764,58.0614582 M41.0521571,54.1031785 L31.2007841,36.5338079 L44.4142323,49.6363102 C43.0652547,50.7079231 41.4347649,52.3824803 41.0521571,54.1031785 M58.4105231,53.8522541 C59.4821359,54.3297362 62.2018656,55.7735881 63.1962311,56.4879967 C63.8707199,57.0043617 63.9370801,57.4325921 63.7784378,57.9095557 C63.6187587,58.3870378 62.8457665,59.2403879 62.4890806,59.5187896 C62.0904012,59.8355556 62.6814214,60.0346361 61.6901665,59.6380305 C61.0151593,59.0024246 58.6495233,57.8385296 57.298472,57.1635223 C57.2191508,56.3293544 57.8029128,55.2810713 57.7624746,54.6071009 C57.9631104,54.0513346 58.2534361,53.7335316 58.4105231,53.8522541 M47.5704874,52.9149169 C47.3729622,52.4783914 50.7075602,52.0812674 52.0964576,52.0812674 C53.4858734,52.0812674 55.7498954,52.5183112 55.5518518,52.9548366 C55.3921727,53.6298439 55.3149253,55.0980624 54.9561657,55.973187 C54.7192392,56.2899531 52.9430681,55.8534276 51.5536522,55.8534276 C50.163718,55.8534276 48.8422176,56.2505517 48.3253342,55.9327488 C47.8478521,55.0197781 47.6892099,53.8278875 47.5704874,52.9149169 M43.4411228,58.2361721 C43.401203,57.7581716 43.5997651,56.4879967 43.997926,55.9327488 C44.3934948,55.376464 44.7532913,54.1446535 45.4671814,54.4640118 C45.665225,55.0197781 46.2220282,56.1707122 46.3791152,56.7663983 C45.5055459,57.2827633 44.433933,57.9572521 44.11613,58.5130184 C43.5204439,58.6327777 43.5204439,58.7120989 43.4411228,58.2361721 M41.2704198,64.8955178 C41.4275067,64.6565175 41.2299816,64.1795539 41.4275067,63.822868 C41.5866674,63.4262624 41.941798,63.0690581 42.3778049,62.6724524 C42.8537317,62.2354086 43.2425608,61.2939238 43.7200428,61.0938065 C44.4754081,60.737639 45.2281811,61.2130474 44.7911373,62.0477337 C44.632495,62.3650183 44.2758092,62.404938 43.917568,62.722741 C43.5997651,63.0804637 43.0828816,63.3977482 42.9263131,64.0323172 C42.7261958,64.6290402 42.6873129,65.5026095 42.7671524,65.9380981 C42.846992,66.3357406 42.7671524,67.1693901 42.965196,67.2875941 C43.401203,67.1693901 44.4754081,65.8598138 44.950298,66.0972588 C45.4262247,66.2170181 45.3075023,66.0972588 45.2665456,66.9319451 C45.4262247,67.5265944 44.8295018,70.703587 44.7911373,71.5372365 C44.7118162,72.2910464 45.3463852,72.2122437 46.0623491,72.2122437 C46.816159,72.2516451 47.6119625,72.4108058 47.768531,72.8074114 C48.0075312,73.4424989 47.8893272,73.1246959 47.7301665,73.284375 C47.5704874,73.4834555 47.252166,73.8800612 46.7772761,73.9583454 C45.9042253,74.0781048 45.8238673,74.4347906 45.9431082,74.951674 C45.7849844,75.2295572 45.9835464,75.2699954 46.1427071,75.3088783 C46.3402323,75.349835 46.4999114,75.2295572 46.8565972,75.1896374 C47.2132831,75.1896374 47.8893272,75.1507545 48.3642171,75.2699954 C48.8811005,75.349835 49.5182617,75.6266813 49.7541514,75.7863604 C49.9931516,75.9838856 49.7945896,76.0238054 49.4762682,76.0637251 C49.1584653,76.1031265 48.4445751,76.0637251 47.9282101,76.0637251 C47.4118451,76.0637251 46.7389116,75.9838856 46.4195534,76.1430463 C46.101232,76.2633241 46.1427071,76.5800901 46.1427071,76.779689 C46.1427071,77.017134 45.9835464,77.215696 46.4195534,77.2950172 C46.8565972,77.3349369 48.0484879,77.0565353 48.4850133,77.0964551 C48.9599032,77.0964551 48.9215388,77.3738198 49.0018968,77.533499 C49.1195823,77.6916228 49.2377864,77.6128201 48.8811005,77.8113821 C48.4850133,78.0094257 47.4911663,77.7704255 47.133962,78.4060314 C46.8565972,79.0815571 46.9359184,80.5108927 47.0162764,81.1070972 C47.2132831,81.6639004 47.3314871,81.7810676 48.1252168,81.8603887 C48.9215388,81.9407467 50.5478811,81.7810676 51.5007715,81.5825056 C52.4541803,81.3839435 53.0498665,80.7094547 53.6071881,80.7892943 C53.6865092,81.1858999 53.6071881,81.3056593 53.5662314,81.8603887 C51.9782536,82.9734767 50.5883193,84.3628925 51.1052027,86.2691918 C51.3032463,87.0629215 51.344203,90.6764395 52.3354579,90.5172788 C53.6071881,89.2460671 67.3846977,85.9897533 67.6625809,86.3479945 C67.9015811,85.3562212 63.2553331,74.951674 63.0572895,74.1180245 C62.8571721,73.2444553 62.4196099,71.9742803 63.8515377,71.7757183 C64.3673842,71.5771563 64.8827123,71.9742803 65.6769605,71.6958787 C66.4706902,71.4579154 67.2649383,70.4656236 67.8217415,69.8300177 C68.2593038,69.2338132 68.1789458,68.6790837 68.0203036,68.321361 C67.5827413,67.4073535 67.1845803,68.7578864 66.6692522,69.0751709 C66.3530046,69.2747698 65.6769605,69.3141712 65.279318,69.0357696 C64.8827123,68.7174482 65.3202746,67.6857551 65.2409535,67.4073535 C65.1217126,67.1294703 65.3202746,67.2098283 64.8033912,67.1693901 C64.2875446,67.1693901 63.4932965,67.9636382 62.1842387,67.2492296 C60.8326689,66.4954197 58.808684,63.9934343 57.2191508,63.0006241 C55.5922901,61.9678942 54.5979245,61.6101714 52.6931806,61.2939238 C50.7868813,61.0150038 47.3729622,61.5313688 45.8622317,61.2524487 C45.3075023,60.6577995 45.2665456,60.5385586 44.6729333,60.1419529 C44.514291,59.5856682 45.14886,59.5856682 45.4262247,59.5856682 C45.7445461,59.5856682 45.4785871,60.0828509 45.9560691,60.0828509 C46.430959,60.0828509 46.6290026,59.645807 48.0593751,59.5265661 C49.4876739,59.447245 52.351011,59.2201688 54.2573103,59.4197678 C56.201974,59.658768 56.8137317,59.9786447 58.4037834,60.8926522 C59.672403,61.6459437 60.6185537,64.1645191 62.6435754,64.8794462 C64.2305164,65.4341756 65.9382536,65.672139 66.853298,65.236132 C67.7237566,65.0769713 67.6470277,64.521205 67.1695456,63.9659571 C66.6531806,63.4091539 65.0652028,62.0601763 64.5488378,61.5438113 C64.0324728,61.0274463 64.271473,61.2654097 64.4290784,60.8288843 C64.6291958,60.4317602 65.2243634,59.7168332 65.6608889,59.43895 C66.0979327,59.1615853 66.336933,59.1999497 66.853298,59.5981107 C67.407509,59.9952348 68.2815967,61.2654097 68.7176037,61.6620153 C69.3521727,62.4173806 69.9893339,62.6952637 69.8301732,61.9010156 C69.5528085,61.3053295 69.9571907,60.0221936 67.9720888,58.1563325 C66.1067462,56.4097124 61.2691943,52.0014278 57.775954,50.6918515 C54.2412387,49.341837 50.9076776,49.1826763 48.0484879,50.0163258 C44.9891809,50.7312529 42.6873129,53.4307634 41.8935832,55.376464 C41.4959406,56.1707122 42.0211191,58.9739104 41.7027977,60.0854431 C41.3849947,61.1580929 40.6477749,61.1860886 40.4471391,61.9798183 C40.2081388,62.7745849 40.5539374,64.2987948 40.7136166,64.7757584 C40.8732957,65.2522036 41.112296,65.1339996 41.2704198,64.8955178 M47.6119625,65.3797395 C48.3253342,64.5450532 49.5970644,63.8306446 51.5811295,63.8705644 C53.5662314,63.9099657 55.2744871,64.9831339 56.1879762,65.6576227 C56.9023848,66.1734693 56.0293339,66.2927102 55.3921727,66.4907538 C54.9172828,66.6099947 54.9561657,66.7281987 54.4003994,66.7281987 C53.6071881,66.7281987 53.6455526,66.8090752 53.5662314,66.6898342 C53.3293049,66.2927102 52.2172538,66.2527904 51.1845239,66.2527904 C50.1911952,66.213389 50.0724728,66.6099947 50.1108372,66.9277976 C50.1523123,67.4052797 49.6359473,68.3182503 49.0018968,67.5229653 C48.3642171,66.7281987 46.8565972,66.213389 47.6119625,65.3797395 M1.30605088,17.7450694 C1.7425763,16.8709817 0.940033128,15.2430841 1.17903339,14.6873177 C2.04586297,14.58363 2.81522606,15.362325 3.60895577,14.9257996 C4.40320393,14.5286755 4.67227364,12.7773894 5.18863862,12.3807838 C5.70500361,11.9831413 6.074132,12.6534825 6.66878123,12.7328037 C7.26550423,12.8510077 8.53516071,13.0241662 9.40924843,12.7856844 C10.2428979,12.547721 10.9972263,11.6871127 11.5535111,11.4880323 C12.1491972,11.249032 12.1491972,11.2096306 12.7448833,11.4880323 C13.3395325,11.7254772 13.7739842,12.64104 14.5293494,12.8790034 C15.2836778,13.1174852 16.0509672,12.9972074 16.5673321,12.8385652 C17.0836971,12.6783676 17.7447065,12.4865453 18.061991,12.327903 C18.3393558,12.2086621 18.66338,11.9043386 18.8935668,12.3688597 C19.2912093,12.9256629 19.1346408,14.6074782 19.7697283,15.12488 C20.4042973,15.6796095 21.0793045,15.1632445 21.5173853,15.0854787 C21.912954,14.9657193 22.0161233,14.5297124 22.2546052,14.4897926 C22.4521303,14.4503912 22.509677,14.3695148 22.6283995,14.9257996 C22.7486773,15.5199304 22.5889981,17.1887847 22.7486773,17.8643103 C22.9068011,18.539836 23.4340533,17.9949569 23.5548495,18.8286064 C23.6341706,19.7021757 23.8617653,20.7390532 23.7020861,22.8039947 C22.3121519,20.1832868 20.9206623,19.0945655 18.8163194,18.0623539 C16.7119766,16.9907411 13.8128671,16.6890097 11.431678,16.6890097 C5.95852016,16.6890097 -2.15660148,19.8675576 3.54778,26.4672828 C-0.115508152,26.0359418 -0.211937758,21.6623926 0.12712118,19.4128869 C0.358344859,17.8746791 1.05927404,18.565758 1.30605088,17.7450694 M6.61278985,24.2255537 C6.05702352,23.8289481 6.65374651,22.1600938 6.93111124,22.0812911 C7.60611848,21.4462036 8.79749071,20.5731528 10.0282643,20.2942327 C11.2984392,20.016868 13.1254173,20.1749918 14.4349936,20.4922763 C15.7067238,20.8111162 16.3013731,21.4462036 16.9364605,22.0812911 C17.5731033,22.7163785 18.227373,24.5475042 17.673162,24.587424 C16.9577165,24.5475042 15.5071249,22.7967365 14.2768698,22.6380943 C13.1254173,22.399094 11.8148042,22.0812911 10.4647897,22.3197729 C8.91673162,22.4773783 7.36867354,24.1462326 6.61278985,24.2255537 M6.11819929,26.7944177 C5.24514845,27.3507025 5.07510054,27.9624602 4.87602006,28.7561899 C4.67642115,29.5099998 4.41409114,30.5722808 4.77129544,31.1285656 C5.12798129,31.4458501 6.28721032,30.5909446 6.3271301,31.3857112 C6.36653145,32.0596816 5.23166904,32.6418883 5.23166904,33.3956982 C5.21404212,33.7497919 5.53288195,33.8871781 5.7584028,34.2293477 C6.01451154,34.6171399 6.20166793,35.1858672 6.58220196,35.1438736 C7.1379683,35.0246327 7.45525281,33.3070452 8.13026005,32.9902791 C8.64558816,32.6330748 9.32370603,32.9659125 9.60107076,32.4485106 C9.91939215,31.9736207 9.32370603,31.1384159 9.60107076,30.6630076 C9.87947237,30.1860439 10.5140414,30.8211314 10.8712457,30.4245258 C11.1102459,30.0673215 11.308808,29.0745113 11.0304064,28.7561899 C10.7131219,28.2813 9.32370603,28.5187449 9.04582287,28.2413802 C8.72750148,27.9624602 9.68039189,28.1216209 9.87947237,27.6850954 C10.0375962,27.2884898 10.2361582,26.097636 9.56270629,25.6989566 C8.72750148,25.5817895 6.95392254,26.4760963 6.11819929,26.7944177 M8.82496796,40.865882 C9.02456688,39.3961082 8.68913701,35.619282 8.88666217,34.2293477 C9.205502,33.2365375 9.72083011,33.6735814 10.1184726,33.3547415 C10.5954363,33.2365375 10.9935972,33.3982904 11.35132,33.2002468 C11.7090427,33.0011663 11.1532764,31.7149198 11.985889,32.2701677 C13.3369403,32.8269709 14.5837855,34.2293477 14.8227858,35.8567269 C14.9430636,37.2466612 15.3526302,39.6190369 15.3920315,40.9286131 C15.5905936,42.0800656 15.9327631,41.4107612 16.052004,41.8493603 C15.9327631,42.2044909 16.2453817,43.4000106 15.569856,43.439412 C14.7766447,43.4000106 13.5484633,42.2101937 12.159566,42.1707924 C11.0158901,42.1707924 9.39265839,42.3833522 9.19720698,43.0142922 C9.125144,43.2465527 9.67417062,44.4239271 10.7069006,44.6261182 C11.0708446,44.6976628 10.8650244,44.8236434 10.0199693,44.8920773 C7.68388429,44.4861398 7.76372386,42.813138 7.79120111,41.9203864 C7.79120111,41.3241819 8.38896098,41.818254 8.82496796,40.865882 M11.9558195,24.8969319 C11.359615,25.0146175 11.3202136,25.7290261 11.4798928,26.2054713 C11.6374981,26.6829534 11.7582944,27.3973619 12.3928634,27.7545662 C13.0279508,28.1117705 14.8134539,28.0329678 15.1732504,28.7867778 C15.371294,30.0984278 15.4449123,33.8633299 15.7632337,35.3719867 C15.9612773,36.2061546 17.1526495,35.8328787 17.3906129,36.3082871 C17.5098538,37.0237325 16.7949268,36.4005691 16.7150872,37.2337002 C16.5958463,38.2664302 16.386397,39.4925378 16.6243604,39.9695015 C16.7441198,40.7243483 16.8234409,40.0928899 16.9416449,41.0063789 C17.4574915,48.3910204 16.2438264,55.9405254 17.9121622,63.1281601 C19.4597019,67.5354078 20.8480808,71.9156968 23.9058325,80.7296738 C24.3024382,81.5228851 25.001812,75.1896374 27.5431988,72.9665721 C29.2898189,71.2603902 32.7799485,69.8932672 34.0122774,69.5360629 C33.6535178,68.5826541 31.806839,65.1438499 31.4501531,63.675113 C31.0525106,62.2058576 31.2915109,60.6966824 31.1328686,59.6649893 C30.9731895,58.6327777 31.2521095,59.5457484 30.4568245,57.640486 C28.2731605,52.0014278 21.9222859,33.0758215 19.2212201,27.3973619 C18.9837751,26.880997 17.5145197,26.7612376 16.9188336,26.2863477 C16.6409504,26.1266686 16.2842646,25.6103036 15.8855852,25.4915811 C13.7822792,25.5709023 12.789469,24.7372528 11.9558195,24.8969319 M43.363357,79.2412362 C41.5368973,75.7863604 40.9298055,73.8406598 39.93544,72.6104047 C39.0235063,71.2987547 34.1911388,71.9742803 31.5294743,73.4834555 C28.8678097,74.9926307 28.3467788,76.5552051 26.7588009,80.4865261 C24.8063606,85.3862906 25.5539493,91.7164277 25.7405873,97.4358439 C25.8800473,101.746144 24.7415558,106.019634 23.4687887,110.210693 C26.3684166,107.669825 27.3601899,105.327 29.7429343,101.397234 C32.0458392,97.5846358 32.4025251,89.4840304 33.3559339,86.0296731 C34.151219,83.1316005 35.7780797,81.5436227 37.6055763,80.3522504 C39.4304807,79.12044 41.297897,79.2013164 43.363357,79.2412362 M43.363357,81.4243817 C45.1099771,84.2825345 47.133962,89.7308073 47.9282101,90.0869747 C48.5238962,90.3664132 49.6359473,90.5172788 49.7541514,91.231169 C44.11613,93.2971474 37.3344329,96.1615214 32.530061,100.330287 C33.5633094,96.1615214 34.5861891,92.2255345 35.4208755,88.095133 C35.7391968,86.3085931 36.4142041,84.1244107 38.5569114,82.5753158 C40.7022109,81.0272577 41.814262,81.3440237 43.363357,81.4243817" id="Fill-27"></path>
                    </g>
                    <path d="M50.9330975,4.42432238 L53.86955,4.42432238 L53.3960911,6.68080739 C54.4941128,4.99348043 55.6777601,4.15233535 56.9571065,4.15233535 C57.4104182,4.15233535 57.8989875,4.26314488 58.4127408,4.48980074 L57.2089464,7.06360395 C56.9218489,6.96286801 56.6196411,6.91250004 56.2972861,6.91250004 C55.7633857,6.91250004 55.2143748,7.11397192 54.6502536,7.52698926 C54.0962059,7.93496981 53.6580046,8.47894387 53.3457232,9.15891145 C53.028405,9.84391583 52.7161235,10.9268272 52.4139157,12.4076454 L51.6483226,16.0542864 L48.5053614,16.0542864 L50.9330975,4.42432238 Z" id="Fill-32" fill="#FFFFFF"></path>
                    <path d="M66.8206659,8.97909781 C66.8206659,8.23868866 66.6040836,7.63930983 66.1709191,7.19103491 C65.7327177,6.73772319 65.1786701,6.51610413 64.4886289,6.51610413 C63.8086613,6.51610413 63.2092825,6.7276496 62.6804188,7.14570374 C62.1565919,7.56375788 61.7486114,8.1782471 61.4564772,8.97406101 C61.164343,9.77491171 61.0182759,10.5102841 61.0182759,11.180178 C61.0182759,12.0162863 61.2449317,12.6761067 61.6982434,13.164676 C62.1515552,13.6532453 62.7207132,13.9000484 63.4057176,13.9000484 C64.2670098,13.9000484 64.9923086,13.5273254 65.576577,12.791953 C66.4026117,11.7493361 66.8206659,10.4800633 66.8206659,8.97909781 M57.865241,11.2255092 C57.865241,9.07479695 58.4696566,7.35221241 59.6885615,6.072866 C60.9024295,4.7884828 62.5041309,4.15384639 64.4785553,4.15384639 C66.196103,4.15384639 67.535891,4.6222685 68.4979192,5.56918631 C69.4599474,6.51610413 69.9434799,7.78537694 69.9434799,9.38707835 C69.9434799,11.2708404 69.3390643,12.8977258 68.1403066,14.2727713 C66.9314754,15.6427801 65.3197004,16.3277845 63.294908,16.3277845 C62.2019231,16.3277845 61.2298213,16.1112022 60.3836394,15.6730009 C59.5374576,15.2347995 58.907858,14.6102367 58.4898038,13.809386 C58.0767865,13.0085353 57.865241,12.1422062 57.865241,11.2255092" id="Fill-33" fill="#FFFFFF"></path>
                    <path d="M74.5874067,11.3227194 C74.5874067,12.1588277 74.7939153,12.8035377 75.2170063,13.2769966 C75.6350604,13.7403819 76.1538505,13.9720746 76.7683397,13.9720746 C77.332461,13.9720746 77.8663614,13.7806763 78.3599675,13.3878061 C78.8535736,12.9999728 79.2464438,12.4005939 79.5436148,11.5997432 C79.8407858,10.7988925 79.9868529,10.0282626 79.9868529,9.28785345 C79.9868529,8.44670837 79.7601971,7.7667408 79.3068853,7.25298751 C78.8586104,6.73419743 78.3347835,6.472284 77.7404415,6.472284 C76.8187077,6.472284 76.0631881,6.98603728 75.4738829,8.00347025 C74.8845777,9.03097681 74.5874067,10.1340353 74.5874067,11.3227194 Z M81.845431,16.0522717 L78.8737208,16.0522717 L79.1305974,14.7930724 C78.5614394,15.3420833 78.0023549,15.7349535 77.4483073,15.9716829 C76.8992964,16.2084124 76.2747336,16.3292955 75.5846924,16.3292955 C74.380898,16.3292955 73.4037594,15.921315 72.6532767,15.0952803 C71.9078307,14.2742824 71.5351077,13.0604143 71.5351077,11.4536761 C71.5351077,9.59509806 72.0538978,7.9128079 73.1065884,6.40680564 C74.1592789,4.90584017 75.5494349,4.15032063 77.282093,4.15032063 C78.8435,4.15032063 80.0120369,4.76984665 80.7927404,6.01393548 L82.0569764,0 L85.1949009,0 L81.845431,16.0522717 Z" id="Fill-34" fill="#FFFFFF"></path>
                    <path d="M87.2141528,4.42432238 L90.357114,4.42432238 L88.9216269,11.3146605 C88.7503758,12.1406952 88.6597135,12.6544485 88.6597135,12.8559204 C88.6597135,13.1933858 88.7856334,13.4804832 89.0324364,13.7222494 C89.2792395,13.9640157 89.5965577,14.0848988 89.9843911,14.0848988 C90.2614149,14.0848988 90.5334019,14.0345308 90.8053889,13.9287581 C91.077376,13.8229854 91.3543998,13.6567711 91.6414972,13.4452256 C91.9235579,13.2286433 92.1804345,12.9818403 92.4070904,12.7048165 C92.6337462,12.4277926 92.8452917,12.0601065 93.03669,11.6067947 C93.1827571,11.2743661 93.3288242,10.7253553 93.4900017,9.96983575 L94.6535018,4.42432238 L97.796463,4.42432238 L95.3586533,16.0542864 L92.4272375,16.0542864 L92.7596661,14.477769 C91.4702461,15.7117842 90.0700166,16.3262734 88.5640143,16.3262734 C87.6070229,16.3262734 86.8515034,16.0542864 86.3024925,15.5103123 C85.7585185,14.9613015 85.4814946,14.2259291 85.4814946,13.3041953 C85.4814946,12.9062883 85.6074146,12.1054376 85.8542176,10.90668 L87.2141528,4.42432238 Z" id="Fill-35" fill="#FFFFFF"></path>
                    <path d="M106.387224,11.6747915 L109.444559,12.1683976 C108.94088,13.5283328 108.195434,14.5608761 107.208222,15.2660277 C106.226046,15.976216 105.082693,16.3287918 103.778163,16.3287918 C102.297345,16.3287918 101.123771,15.8855537 100.257442,15.0041142 C99.3860761,14.1226748 98.9529116,12.9037699 98.9529116,11.3574733 C98.9529116,10.0932373 99.214825,8.89951641 99.7436887,7.77631071 C100.267516,6.653105 101.058293,5.76662875 102.11602,5.12191875 C103.173747,4.47217195 104.337247,4.14981695 105.601483,4.14981695 C106.971492,4.14981695 108.064477,4.50742953 108.885475,5.22769149 C109.701436,5.93787985 110.164821,6.87976086 110.270594,8.04829774 L107.278737,8.37065274 C107.203185,7.71586915 107.00675,7.24241024 106.679358,6.93516563 C106.351966,6.62792102 105.928875,6.47178032 105.405048,6.47178032 C104.800633,6.47178032 104.231475,6.69843618 103.707648,7.1517479 C103.178784,7.60505962 102.77584,8.28502719 102.498817,9.18157704 C102.216756,10.0882005 102.075726,10.9293456 102.075726,11.7150859 C102.075726,12.405127 102.24194,12.9339907 102.574369,13.3067137 C102.916871,13.6794367 103.334925,13.8657981 103.838605,13.8657981 C104.342284,13.8657981 104.825817,13.6794367 105.294239,13.3167873 C105.762661,12.9491011 106.12531,12.405127 106.387224,11.6747915" id="Fill-36" fill="#FFFFFF"></path>
                    <path d="M111.763501,6.75837406 L112.25207,4.4263371 L113.783256,4.4263371 L114.166053,2.56272225 L117.767363,0.391862798 L116.926218,4.4263371 L118.8402,4.4263371 L118.361705,6.75837406 L116.432611,6.75837406 L115.415179,11.6289566 C115.228817,12.5154329 115.138155,13.0191126 115.138155,13.1399957 C115.138155,13.381762 115.218743,13.5731602 115.374884,13.704117 C115.520951,13.8401105 115.803012,13.9055888 116.205956,13.9055888 C116.336912,13.9055888 116.689488,13.8854417 117.243536,13.8350737 L116.74993,16.1620738 C116.210992,16.2779202 115.651908,16.3282881 115.08275,16.3282881 C113.974655,16.3282881 113.168767,16.1117059 112.665087,15.6886149 C112.161408,15.2604872 111.909568,14.6661452 111.909568,13.9055888 C111.909568,13.5530131 112.045561,12.7269784 112.312512,11.4325216 L113.28965,6.75837406 L111.763501,6.75837406 Z" id="Fill-37" fill="#FFFFFF"></path>
                    <path d="M127.862615,8.97909781 C127.862615,8.23868866 127.646032,7.63930983 127.212868,7.19103491 C126.774667,6.73772319 126.220619,6.51610413 125.535615,6.51610413 C124.85061,6.51610413 124.251231,6.7276496 123.727404,7.14570374 C123.198541,7.56375788 122.79056,8.1782471 122.503463,8.97406101 C122.206292,9.77491171 122.065261,10.5102841 122.065261,11.180178 C122.065261,12.0162863 122.291917,12.6761067 122.740192,13.164676 C123.193504,13.6532453 123.762662,13.9000484 124.447666,13.9000484 C125.308959,13.9000484 126.034257,13.5273254 126.618526,12.791953 C127.449597,11.7493361 127.862615,10.4800633 127.862615,8.97909781 M118.912227,11.2255092 C118.912227,9.07479695 119.516642,7.35221241 120.73051,6.072866 C121.944378,4.7884828 123.54608,4.15384639 125.520504,4.15384639 C127.238052,4.15384639 128.57784,4.6222685 129.539868,5.56918631 C130.501896,6.51610413 130.985429,7.78537694 130.985429,9.38707835 C130.985429,11.2708404 130.38605,12.8977258 129.182255,14.2727713 C127.973424,15.6427801 126.361649,16.3277845 124.341894,16.3277845 C123.243872,16.3277845 122.276807,16.1112022 121.425588,15.6730009 C120.579406,15.2347995 119.949807,14.6102367 119.536789,13.809386 C119.118735,13.0085353 118.912227,12.1422062 118.912227,11.2255092" id="Fill-38" fill="#FFFFFF"></path>
                    <path d="M141.861384,11.3227194 C141.861384,12.1588277 142.067893,12.8035377 142.490984,13.2769966 C142.909038,13.7403819 143.427828,13.9720746 144.042317,13.9720746 C144.606439,13.9720746 145.140339,13.7806763 145.633945,13.3878061 C146.127551,12.9999728 146.520421,12.4005939 146.817592,11.5997432 C147.114763,10.7988925 147.260831,10.0282626 147.260831,9.28785345 C147.260831,8.44670837 147.034175,7.7667408 146.580863,7.25298751 C146.132588,6.73419743 145.608761,6.472284 145.014419,6.472284 C144.092685,6.472284 143.342203,6.98603728 142.752897,8.00347025 C142.158555,9.03097681 141.861384,10.1340353 141.861384,11.3227194 Z M149.119409,16.0522717 L146.147698,16.0522717 L146.404575,14.7930724 C145.835417,15.3420833 145.276333,15.7349535 144.722285,15.9716829 C144.173274,16.2084124 143.548711,16.3292955 142.85867,16.3292955 C141.654876,16.3292955 140.677737,15.921315 139.927254,15.0952803 C139.181808,14.2742824 138.809085,13.0604143 138.809085,11.4536761 C138.809085,9.59509806 139.327875,7.9128079 140.380566,6.40680564 C141.433257,4.90584017 142.823412,4.15032063 144.556071,4.15032063 C146.117478,4.15032063 147.291051,4.76984665 148.071755,6.01393548 L149.330954,0 L152.468878,0 L149.119409,16.0522717 Z" id="Fill-39" fill="#FFFFFF"></path>
                    <path d="M160.749373,9.29893441 C160.759446,9.16294089 160.764483,9.05716816 160.764483,8.9816162 C160.764483,8.12032394 160.573085,7.47057714 160.185251,7.0424494 C159.797418,6.61432167 159.278628,6.39270261 158.628881,6.39270261 C157.974097,6.39270261 157.394866,6.63950565 156.881113,7.12807495 C156.367359,7.61664425 156.01982,8.341943 155.833459,9.29893441 L160.749373,9.29893441 Z M163.403765,11.2129172 L155.521177,11.2129172 C155.511104,11.3388371 155.506067,11.4345363 155.506067,11.5000146 C155.506067,12.2706446 155.727686,12.8952074 156.170924,13.3737031 C156.614162,13.847162 157.148063,14.0838914 157.782699,14.0838914 C158.830353,14.0838914 159.641277,13.5449542 160.225546,12.4620429 L163.041115,12.9355018 C162.497141,14.0637443 161.761769,14.9149629 160.845072,15.484121 C159.928375,16.0432054 158.900868,16.3303029 157.762552,16.3303029 C156.201145,16.3303029 154.931872,15.8366968 153.949697,14.8444478 C152.972558,13.8521988 152.483989,12.5527052 152.483989,10.920783 C152.483989,9.32915519 152.92219,7.91381526 153.808666,6.67476323 C155.012461,4.99247307 156.730009,4.15132799 158.966346,4.15132799 C160.39176,4.15132799 161.520002,4.58952932 162.361148,5.47096878 C163.202293,6.35240823 163.620347,7.58642347 163.620347,9.16797769 C163.620347,9.92853402 163.549832,10.6085016 163.403765,11.2129172 Z" id="Fill-40" fill="#FFFFFF"></path>
                </g>
            </g>
        </g>
    </g>
</svg>