<?xml version="1.0" encoding="UTF-8"?>
<svg width="46px" height="33px" viewBox="0 0 46 33" version="1.1" xmlns="http://www.w3.org/2000/svg" xmlns:xlink="http://www.w3.org/1999/xlink">
    <!-- Generator: sketchtool 50.2 (55047) - http://www.bohemiancoding.com/sketch -->
    <title>9823AF1E-F0D0-4886-9562-454CF58080DE</title>
    <desc>Created with sketchtool.</desc>
    <defs></defs>
    <g id="Designs_V2" stroke="none" stroke-width="1" fill="none" fill-rule="evenodd">
        <g id="Hogar1" transform="translate(-745.000000, -959.000000)" fill="#666768" stroke="#979797">
            <g id="tab" transform="translate(0.000000, 720.000000)">
                <g id="Group-11" transform="translate(185.000000, 239.000000)">
                    <g id="Group-2" transform="translate(582.576172, 16.500000) scale(-1, 1) translate(-582.576172, -16.500000) translate(560.076172, 0.500000)">
                        <path d="M3.28699737,13.8952455 C3.74103897,13.9039534 4.22714623,14.0149026 4.7252397,14.2544219 C4.7252397,14.2544219 4.7252397,14.2544219 4.7252397,14.2544219 L14.8595773,19.1246583 C15.0463367,18.0018478 16.0896489,17.1399679 17.308349,17.1749533 C17.3086734,17.174953 17.3089978,17.174953 17.3093222,17.1749533 L22.8292264,17.3436822 C24.2660345,17.3431699 25.3541669,16.9971067 26.6367422,16.6262002 C27.920342,16.2550375 29.385835,15.8684568 31.4465917,15.8684568 C33.2834523,15.8684568 36.0213784,16.528825 37.9877822,17.2637741 L37.9877822,15.3357365 C37.9878105,15.0528508 38.2171276,14.8235337 38.5000132,14.8235054 L44.0525978,14.8235054 C44.3354834,14.8235337 44.5648005,15.0528508 44.5648288,15.3357365 L44.5648288,19.5206641 L44.5648288,30.5746101 C44.5648005,30.8574958 44.3354834,31.0868128 44.0525978,31.0868411 L38.5000132,31.0868411 C38.2171276,31.0868128 37.9878105,30.8574958 37.9877822,30.5746101 L37.9877822,28.8373273 C30.8601896,27.4576842 26.7198261,29.5911265 20.643639,29.5911265 C20.6433658,29.5911267 20.6430926,29.5911267 20.6428194,29.5911265 C19.6037075,29.5911265 18.2793854,29.0207572 16.6557666,28.1782908 C15.0320967,27.3358244 13.1561017,26.19442 11.2558782,24.9675754 C7.45578973,22.5141423 3.5566358,19.7150046 1.50699424,18.3264999 C1.50699424,18.3264999 1.506482,18.3259877 1.50632834,18.3259877 C0.925099768,17.9334138 0.596196214,17.3421455 0.526840131,16.7427327 C0.457484047,16.1430638 0.626469069,15.5390922 0.970739554,15.0388986 C1.44409226,14.3511772 2.28778827,13.8758319 3.2868437,13.8950406 L3.28699737,13.8952455 Z M3.16083487,14.8923493 C2.54006206,14.8974716 2.09406249,15.2140816 1.81479387,15.619871 C1.60201309,15.9290025 1.50673812,16.2976552 1.54459199,16.6251245 C1.58249709,16.9525938 1.73232467,17.2427214 2.08038592,17.4776306 C2.08059095,17.4778012 2.08079584,17.4779719 2.0810006,17.4781428 C4.16009519,18.8865733 8.04126982,21.6729565 11.8116489,24.1072321 C13.6968128,25.3243443 15.5536503,26.4524307 17.1276339,27.2691319 C18.7009003,28.0854745 20.0382331,28.5654862 20.6437927,28.566818 C20.6437927,28.566818 20.6443049,28.566818 20.644561,28.566818 C26.4221174,28.566818 30.7193261,26.4392664 37.9879359,27.7949883 L37.9879359,26.3027568 C37.9853233,26.1180279 38.0823786,25.9462023 38.2419373,25.8530755 C38.401496,25.7599486 38.5988378,25.7599486 38.7583965,25.8530755 C38.9179552,25.9462023 39.0150105,26.1180279 39.0123979,26.3027568 L39.0123979,30.0625327 L40.5490911,30.0625327 L40.5490911,15.8481212 L39.0123979,15.8481212 L39.0123979,19.6027748 C39.0150105,19.7875037 38.9179552,19.9593292 38.7583965,20.0524561 C38.5988378,20.145583 38.401496,20.145583 38.2419373,20.0524561 C38.0823786,19.9593292 37.9853233,19.7875037 37.9879359,19.6027748 L37.9879359,18.3611267 C36.1379622,17.6247946 33.1262998,16.8930725 31.4467454,16.8930725 C29.5120487,16.8930725 28.1885974,17.2441045 26.9213378,17.6105546 C25.654027,17.9770046 24.4299997,18.3682979 22.8258969,18.3682979 C22.8207237,18.3683763 22.8155496,18.3683763 22.8103763,18.3682979 L17.279203,18.1992617 C17.2786908,18.1992617 17.2785884,18.1992617 17.278281,18.1992617 C16.4838619,18.1772358 15.8544324,18.8011332 15.8544324,19.4851665 C15.8544324,20.176115 16.4751028,20.7390569 17.3134713,20.7711738 C17.3142226,20.7711721 17.3149738,20.7711721 17.3157251,20.7711738 L27.8369508,21.2219371 C28.0218859,21.2268665 28.1897962,21.3311237 28.2762316,21.4946909 C28.362667,21.6582581 28.3541977,21.8557212 28.2540744,22.0112868 C28.1539512,22.1668524 27.9777306,22.2563495 27.7930526,22.2454259 L17.2742344,21.7948163 L17.2718269,21.7948163 C16.272669,21.7558867 15.3693496,21.1789609 15.0031556,20.3271207 C14.9854681,20.3207366 14.9681456,20.3133835 14.9512666,20.3050947 L4.28149395,15.177662 C3.8592619,14.9745624 3.4861528,14.8903004 3.16098854,14.8922468 L3.16083487,14.8923493 Z M43.5405204,15.8481212 L43.5405204,19.5208178 L43.5405204,30.0625327 L41.5735532,30.0625327 L41.5735532,15.8481212 L43.5405204,15.8481212 Z M19.8115709,6.42100055 C20.0942268,6.42532536 20.3199551,6.65779324 20.3159648,6.94045406 L20.3159648,9.89600157 L23.2715379,9.89600157 C23.4562668,9.89338905 23.6280924,9.99044433 23.7212193,10.150003 C23.8143461,10.3095618 23.8143461,10.5069035 23.7212193,10.6664622 C23.6280924,10.8260209 23.4562668,10.9230762 23.2715379,10.9204637 L20.3159648,10.9204637 L20.3159648,13.8760368 C20.3185773,14.0607657 20.221522,14.2325913 20.0619633,14.3257181 C19.9024046,14.418845 19.7050629,14.418845 19.5455042,14.3257181 C19.3859455,14.2325913 19.2888902,14.0607657 19.2915027,13.8760368 L19.2915027,10.9204637 L16.3359296,10.9204637 C16.1512007,10.9230762 15.9793751,10.8260209 15.8862482,10.6664622 C15.7931214,10.5069035 15.7931214,10.3095618 15.8862482,10.150003 C15.9793751,9.99044433 16.1512007,9.89338905 16.3359296,9.89600157 L19.2915027,9.89600157 L19.2915027,6.94045406 C19.289548,6.80198941 19.343733,6.6686316 19.4417099,6.57077048 C19.5396869,6.47290935 19.6731087,6.41888209 19.8115709,6.42100055 Z M15.6215209,0.0181124898 C15.9041768,0.0224373003 16.1299052,0.254905178 16.1259148,0.537565993 L16.1259148,2.02815833 L17.6165072,2.02815833 C17.8012361,2.02554581 17.9730617,2.12260108 18.0661885,2.2821598 C18.1593154,2.44171852 18.1593154,2.63906024 18.0661885,2.79861896 C17.9730617,2.95817767 17.8012361,3.05523295 17.6165072,3.05262042 L16.1259148,3.05262042 L16.1259148,4.53809045 C16.1285274,4.72281937 16.0314721,4.89464494 15.8719134,4.9877718 C15.7123547,5.08089866 15.5150129,5.08089866 15.3554542,4.9877718 C15.1958955,4.89464494 15.0988402,4.72281937 15.1014528,4.53809045 L15.1014528,3.05262042 L13.6159827,3.05262042 C13.4312538,3.05523295 13.2594282,2.95817767 13.1663014,2.79861896 C13.0731745,2.63906024 13.0731745,2.44171852 13.1663014,2.2821598 C13.2594282,2.12260108 13.4312538,2.02554581 13.6159827,2.02815833 L15.1014528,2.02815833 L15.1014528,0.537565993 C15.099498,0.399101347 15.1536831,0.265743541 15.25166,0.167882413 C15.3496369,0.0700212841 15.4830587,0.0159940312 15.6215209,0.0181124898 Z M24.0016208,0.0181124898 C24.2842767,0.0224373003 24.5100051,0.254905178 24.5060147,0.537565993 L24.5060147,2.02815833 L25.9966071,2.02815833 C26.181336,2.02554581 26.3531616,2.12260108 26.4462884,2.2821598 C26.5394153,2.44171852 26.5394153,2.63906024 26.4462884,2.79861896 C26.3531616,2.95817767 26.181336,3.05523295 25.9966071,3.05262042 L24.5060147,3.05262042 L24.5060147,4.53809045 C24.5086273,4.72281937 24.411572,4.89464494 24.2520133,4.9877718 C24.0924546,5.08089866 23.8951128,5.08089866 23.7355541,4.9877718 C23.5759954,4.89464494 23.4789401,4.72281937 23.4815527,4.53809045 L23.4815527,3.05262042 L21.9960826,3.05262042 C21.8113537,3.05523295 21.6395281,2.95817767 21.5464013,2.79861896 C21.4532744,2.63906024 21.4532744,2.44171852 21.5464013,2.2821598 C21.6395281,2.12260108 21.8113537,2.02554581 21.9960826,2.02815833 L23.4815527,2.02815833 L23.4815527,0.537565993 C23.4795979,0.399101347 23.5337829,0.265743541 23.6317599,0.167882413 C23.7297368,0.0700212841 23.8631586,0.0159940312 24.0016208,0.0181124898 Z" id="Combined-Shape"></path>
                    </g>
                </g>
            </g>
        </g>
    </g>
</svg>