<?xml version="1.0" encoding="UTF-8"?>
<svg width="62px" height="83px" viewBox="0 0 62 83" version="1.1" xmlns="http://www.w3.org/2000/svg" xmlns:xlink="http://www.w3.org/1999/xlink">
    <!-- Generator: sketchtool 50.2 (55047) - http://www.bohemiancoding.com/sketch -->
    <title>DE693220-1BD5-4012-A5B9-FFA45C2F83F0</title>
    <desc>Created with sketchtool.</desc>
    <defs>
        <linearGradient x1="0%" y1="-3.24142267%" x2="107.192732%" y2="107.646343%" id="linearGradient-1">
            <stop stop-color="#F5B156" offset="0%"></stop>
            <stop stop-color="#E7792B" offset="100%"></stop>
        </linearGradient>
    </defs>
    <g id="Designs_V2" stroke="none" stroke-width="1" fill="none" fill-rule="evenodd">
        <g id="Hogar1" transform="translate(-509.000000, -1780.000000)" fill="url(#linearGradient-1)" fill-rule="nonzero">
            <g id="items" transform="translate(91.000000, 1611.000000)">
                <g id="persona" transform="translate(418.050781, 168.807443)">
                    <g id="Group" transform="translate(0.000000, 0.564488)">
                        <path d="M16.5881994,6.1453811 C14.4708072,9.35240993 13.6233848,13.3299877 13.3812856,17.0128868 C11.50609,17.0650149 11.50609,18.8352817 11.5013728,20.7736329 C11.7265414,22.8171165 12.3905508,25.24156 14.1553658,26.0553425 C14.1737744,26.0558735 14.1922715,26.0558735 14.21068,26.0553425 C14.9894951,29.047177 16.2370826,32.0340553 17.9705057,34.6553288 C20.9860943,39.2153784 25.4445604,42.6959249 30.9640149,42.7575228 C36.4660697,42.8185897 40.8880728,39.381321 43.9022241,34.8211829 C45.6642336,32.155481 46.9517711,29.1062968 47.7449856,26.0553425 C49.6812747,24.9266673 50.2272214,22.8088857 50.4265915,20.7736329 C50.4473011,18.8352817 50.4473011,17.0649795 48.5743269,17.0128868 C48.3529551,13.3199869 47.5386061,9.36199477 45.4503579,6.1730382 C42.8740738,2.23881792 38.2659761,-0.357108477 31.1298513,0.476587149 C31.0490483,0.466320834 30.9888488,0.485968438 30.908683,0.476587149 C25.5517195,-0.309812623 19.3840712,2.04501466 16.5881994,6.1453811 Z M43.9851423,7.1408774 C45.1146848,8.86578657 45.8318754,10.9412816 46.2797434,13.0862069 C46.0647084,12.824708 45.8384069,12.5360209 45.5885991,12.2566355 C43.9331912,10.6880753 42.5562694,10.2527481 40.5570726,10.4315678 C38.4518407,10.8645055 37.1481956,12.6625002 35.7467108,13.7775459 C34.0411217,15.1216722 31.1476138,16.6771606 25.4348428,17.9254472 C26.273353,16.0638544 27.1671154,14.0040333 27.4253398,12.2843015 C27.4759634,11.8524967 27.1589555,11.4086379 26.7341955,11.3164534 C24.2181517,10.818192 21.742589,11.6905987 19.5186484,13.0862246 C17.9760814,14.0542674 16.5316727,15.2758351 15.2059108,16.5428134 C15.492164,13.2390423 16.2991318,9.79796802 18.0534239,7.1408951 C21.7669981,2.67000317 25.9189173,1.63387527 30.9087007,2.24635835 C30.9820695,2.25556263 31.0565268,2.25556263 31.129869,2.24635835 C35.984022,1.55692216 41.5964574,3.61665482 43.9851423,7.1408774 Z M44.2892465,13.4456961 C45.025359,14.4201642 45.7831635,15.184456 46.6944318,15.8238262 C46.8303897,17.1344807 46.9035549,18.4292755 46.8879518,19.6675524 C46.8317526,24.1287268 45.2405976,29.5842115 42.4369854,33.8257043 C39.6333697,38.0672857 35.7143896,41.0408355 30.9639972,40.9878224 C26.1774161,40.9347208 22.2404522,37.9286905 19.4357125,33.6874631 C16.6309728,29.4462357 15.0676784,24.0120802 15.0676784,19.5569417 C16.2445168,17.6605586 18.7044057,15.6997365 20.4586004,14.5794514 C22.1128136,13.5413587 23.7539992,13.0639397 25.3519069,13.0862069 C24.9684778,15.2125822 23.65577,17.1494819 23.0573058,18.8932687 C22.8549089,19.4747758 23.4470806,20.1658228 24.0525543,20.0546899 C31.2257086,18.7229452 34.7463999,16.8199509 36.8525434,15.160162 C38.1356912,13.9929616 39.4352121,12.7026893 40.8611768,12.1736731 C42.1924347,11.8689759 43.5497974,12.6254175 44.2892465,13.4456961 Z M36.6037269,44.555013 C34.5031059,46.2280685 32.9493345,48.6810099 30.8534131,50.0302338 C28.933612,48.4783386 27.7881479,46.212492 26.0706906,44.6655529 C25.2728917,43.8938092 24.420761,43.8461948 23.5272818,43.9466453 C18.5786875,46.2857722 11.9388683,48.6367585 7.32691189,51.6063788 C3.03320241,54.4276685 -0.0546663604,58.0384025 0.000736342634,63.0985455 C0.000736342634,67.5229735 0.000736342634,73.7171904 0.000736342634,77.2567682 C0.000736342634,80.796346 2.65472937,81.6811962 8.84742402,81.6648232 C25.0283498,81.8163399 38.3702589,81.7028794 52.9700623,81.6922591 C56.4990729,81.5480882 60.3480385,81.0514109 61.4296214,77.5444021 C62.3035681,74.5646925 61.8166615,70.2200054 61.8166615,63.2203253 C61.8166615,58.1827504 58.6511405,54.5918411 54.3523067,51.7167417 C50.0534729,48.8416423 44.5300978,46.5277387 39.2853681,43.8633643 C38.2411157,43.4726248 37.4361392,43.9881531 36.6037269,44.554836 L36.6037269,44.555013 Z M38.5388919,45.4675646 C40.6062181,46.5164103 42.6781907,47.5027732 44.7038906,48.4817017 L39.6170763,55.7267114 L36.078419,53.5974245 C35.9055466,53.0645496 35.6437998,52.5477822 35.1937546,52.1041181 C34.6150884,51.5337181 33.7994031,51.1264285 32.760921,50.915084 C34.5026546,48.9404113 36.2719833,47.1706224 38.5388919,45.4675646 Z M24.2183818,45.5507572 C26.5406755,48.0558267 27.4253398,48.9406769 29.1393278,50.9705752 C28.204031,51.2004168 27.449448,51.6031927 26.9000231,52.1319964 C26.4534384,52.5618542 26.1744424,53.0696828 25.9877105,53.5976015 L22.4767014,55.6991871 L17.3898748,48.4818788 C19.7878383,47.4435648 22.1968027,46.4147207 24.2183818,45.5507572 Z M15.7311302,49.2008749 L21.5091011,57.4137503 C21.7626437,57.7659026 22.2946424,57.8799826 22.6702214,57.66262 L25.7112545,55.8375169 L25.7112545,57.828474 C25.7059444,58.1206215 25.8567973,58.4108219 26.0982946,58.575083 L28.2823117,60.0130752 L24.1077977,79.950614 C20.0053337,79.9417638 16.4919085,79.9417638 13.3259537,79.9231782 L13.3259537,71.9868738 C13.3388751,71.4514323 12.7702452,70.9847575 12.2477693,71.1020236 C11.8521887,71.1906148 11.5468632,71.5815313 11.5566251,71.9868738 L11.5566251,79.9231782 C10.7329391,79.9143279 9.5364531,79.9045926 8.84733552,79.8957424 C4.42405806,79.9116728 1.77006503,79.9116728 1.77006503,77.2573878 C1.77006503,74.6027487 1.70873264,70.2281477 1.77006503,63.0992536 C1.57658923,58.6634087 5.39410098,55.0187782 8.29442363,53.0726919 C10.8333985,51.5146015 13.4745144,50.215293 15.7311302,49.2012289 L15.7311302,49.2008749 Z M46.3073474,49.2840674 C48.8863875,50.5535504 51.3266465,51.8066604 53.3846622,53.1830548 C57.4600001,55.9087615 60.0472886,58.9067912 60.0472886,63.2210333 C60.0472886,70.2939937 60.4170618,74.7498402 59.7431844,77.0473708 C58.670142,79.9769879 55.2393252,79.9145049 52.9699738,79.9232667 C52.4042998,79.9232667 51.1315068,79.9232667 50.4818526,79.9232667 L50.4818526,71.9869623 C50.494774,71.4514323 49.9261529,70.9847575 49.4036682,71.1020236 C49.0080965,71.1906148 48.7027709,71.5815313 48.7125239,71.9869623 L48.7125239,79.9232667 C45.673013,79.9347721 41.9307233,79.9436223 37.9583318,79.9507025 L33.783862,60.0132522 L35.9402308,58.57526 C36.1817282,58.410999 36.3321828,58.1207985 36.3272709,57.8286511 L36.3272709,55.8099925 L39.3959523,57.662797 C39.7763104,57.8960901 40.3298418,57.7802401 40.5847208,57.4138388 L46.3073474,49.2840674 Z M31.0192406,52.5194614 C32.7333259,52.4805202 33.1214811,52.8787824 33.9496453,53.3766987 C34.8115025,54.590425 34.5578537,55.8438005 34.5578537,57.3310003 L32.2909008,58.8519195 C31.9965496,59.0536172 31.8467941,59.4454188 31.9315089,59.7920839 L36.1336624,79.9785809 C32.4739067,79.9874312 29.6073213,79.9785809 25.9323786,79.9785809 L30.134532,59.7920839 C30.2138304,59.4398431 30.0516935,59.046183 29.7474919,58.8519195 L27.480539,57.3310003 C27.3321111,55.8767236 27.5158516,54.475637 28.144035,53.4043116 C29.2808259,52.7732872 29.1946685,52.4805202 31.0192406,52.5194614 Z" id="Shape"></path>
                    </g>
                </g>
            </g>
        </g>
    </g>
</svg>